<?xml version="1.0" encoding="UTF-8"?>
<svg version="1.1" xmlns="http://www.w3.org/2000/svg" width="913" height="273">
<path d="M0 0 C1.4540625 0.0309375 1.4540625 0.0309375 2.9375 0.0625 C3.33839844 1.30902344 3.73929687 2.55554687 4.15234375 3.83984375 C9.86040418 21.12803995 17.13640975 36.14006573 28.9375 50.0625 C29.36256836 50.57119629 29.78763672 51.07989258 30.22558594 51.60400391 C48.83969491 73.69862911 72.88942021 85.41447449 99.9375 94.0625 C99.9375 96.0425 99.9375 98.0225 99.9375 100.0625 C96.17997045 101.51950125 92.44660783 102.90548544 88.59375 104.09375 C70.03723795 109.86342182 55.04613134 119.69413635 40.9375 133.0625 C40.0403125 133.89523438 39.143125 134.72796875 38.21875 135.5859375 C20.74306086 152.32529143 10.36137096 173.28635219 2.9375 196.0625 C0.9575 196.0625 -1.0225 196.0625 -3.0625 196.0625 C-4.41906909 192.53542037 -5.76431317 189.03628889 -6.87109375 185.421875 C-16.23499054 154.95799744 -38.48828893 128.67641124 -66.59228516 113.71582031 C-76.43729959 108.69904659 -86.38840932 104.02384193 -97.0625 101.0625 C-97.0625 98.7525 -97.0625 96.4425 -97.0625 94.0625 C-95.3609375 93.43021484 -95.3609375 93.43021484 -93.625 92.78515625 C-73.75430242 85.31618359 -56.79350936 76.45605512 -41.0625 62.0625 C-39.83080078 60.93714844 -39.83080078 60.93714844 -38.57421875 59.7890625 C-22.4700234 44.38021237 -11.31778925 23.96553339 -4.68676758 2.82128906 C-3.62278757 -0.17633001 -3.3959855 0.06930583 0 0 Z M-1.0625 18.0625 C-1.21283691 18.78614746 -1.36317383 19.50979492 -1.51806641 20.25537109 C-4.56948758 34.80670608 -7.59408387 49.2060325 -13.0625 63.0625 C-13.3109668 63.74795898 -13.55943359 64.43341797 -13.81542969 65.13964844 C-16.65717259 72.77885845 -19.7106157 77.98362897 -27.18481445 81.68554688 C-31.07567062 83.36940997 -35.030195 84.75946967 -39.0625 86.0625 C-40.09358887 86.41248047 -40.09358887 86.41248047 -41.14550781 86.76953125 C-54.15949276 91.14376501 -67.70629534 93.95329793 -81.0625 97.0625 C-81.0625 97.3925 -81.0625 97.7225 -81.0625 98.0625 C-80.23226318 98.2483667 -79.40202637 98.4342334 -78.54663086 98.62573242 C-46.5606714 105.82617907 -46.5606714 105.82617907 -36.0625 110.0625 C-35.39057617 110.30983887 -34.71865234 110.55717773 -34.02636719 110.81201172 C-26.91490371 113.47680027 -20.48283865 116.02695258 -16.77124023 123.0625 C-15.31834193 126.32992577 -14.18019572 129.66889935 -13.0625 133.0625 C-12.5577044 134.42868693 -12.0485419 135.79326779 -11.53515625 137.15625 C-6.91852749 149.80382842 -4.03495525 162.95247496 -1.0625 176.0625 C0.67640597 172.90498816 1.59962983 169.85963152 2.453125 166.36328125 C2.73164307 165.244375 3.01016113 164.12546875 3.29711914 162.97265625 C3.73785767 161.19181641 3.73785767 161.19181641 4.1875 159.375 C6.90393014 148.68796397 9.83805578 138.29978612 13.9375 128.0625 C14.28039062 127.0209375 14.62328125 125.979375 14.9765625 124.90625 C18.46178813 116.27616748 25.61462078 113.501593 33.72265625 110.03515625 C44.62920351 105.75123457 55.77718941 103.08733144 67.25 100.8125 C68.58801196 100.54226673 69.92590339 100.27143601 71.26367188 100 C74.48715382 99.34832134 77.7117012 98.70259289 80.9375 98.0625 C77.68643129 96.22731364 74.64015486 95.4712051 70.984375 94.765625 C69.81535645 94.53238525 68.64633789 94.29914551 67.44189453 94.05883789 C66.20294434 93.81254639 64.96399414 93.56625488 63.6875 93.3125 C52.9130513 91.07930798 43.00877246 88.49340775 32.9375 84.0625 C31.66405434 83.59024614 30.38928626 83.1215443 29.11328125 82.65625 C22.37835541 80.017521 17.96820768 76.95961144 14.9375 70.25 C13.83909131 67.55153135 12.88223503 64.81781684 11.9375 62.0625 C11.42805999 60.70747442 10.91632818 59.35330833 10.40234375 58 C5.65361906 45.03975044 2.85689745 31.52677358 -0.0625 18.0625 C-0.3925 18.0625 -0.7225 18.0625 -1.0625 18.0625 Z " fill="#EDBA2F" transform="translate(488.0625,38.9375)"/>
<path d="M0 0 C5.445 1.485 5.445 1.485 11 3 C10.19879978 7.00600109 9.68392612 8.96379706 7.78515625 12.3203125 C7.34623047 13.10277344 6.90730469 13.88523437 6.45507812 14.69140625 C5.76575195 15.89603516 5.76575195 15.89603516 5.0625 17.125 C4.60681641 17.93582031 4.15113281 18.74664062 3.68164062 19.58203125 C1.86858357 22.79403569 0.04711403 25.92932895 -2 29 C-0.700625 29.144375 0.59875 29.28875 1.9375 29.4375 C5.875 29.875 5.875 29.875 7 31 C7.14115161 33.67058851 7.04247107 36.32432238 7 39 C11.29 38.34 15.58 37.68 20 37 C19.90126587 35.37203491 19.90126587 35.37203491 19.80053711 33.71118164 C19.55859396 29.69911496 19.32352651 25.68667031 19.09057617 21.67407227 C18.98862378 19.93470272 18.88478616 18.19544263 18.77905273 16.45629883 C18.62773318 13.96201259 18.48311287 11.46741618 18.33984375 8.97265625 C18.29093491 8.19036148 18.24202606 7.40806671 18.19163513 6.60206604 C18.08778656 4.73650663 18.0382924 2.86805517 18 1 C18.33 0.67 18.66 0.34 19 0 C22.63 0 26.26 0 30 0 C30.99 17.82 30.99 17.82 32 36 C34.7225 35.525625 37.445 35.05125 40.25 34.5625 C55.06793744 32.05182851 55.06793744 32.05182851 62 32 C63.66342837 33.66342837 63.36048097 35.7825709 63.5625 38.0625 C63.68818359 39.44115234 63.68818359 39.44115234 63.81640625 40.84765625 C63.87699219 41.55792969 63.93757812 42.26820312 64 43 C59.90681458 43.57138954 55.8133874 44.14101067 51.71972656 44.70898438 C50.32675503 44.90250676 48.93385087 45.09651473 47.54101562 45.29101562 C45.54054197 45.57028403 43.5398057 45.84766926 41.5390625 46.125 C39.73236084 46.37636719 39.73236084 46.37636719 37.88916016 46.6328125 C35 47 35 47 33 47 C33.13631836 47.89924194 33.13631836 47.89924194 33.27539062 48.81665039 C33.68888026 51.56450105 34.09449382 54.31346034 34.5 57.0625 C34.64308594 58.00544922 34.78617188 58.94839844 34.93359375 59.91992188 C35.67809139 65.00732242 36.17113566 69.8587994 36 75 C36.66 75 37.32 75 38 75 C38.26941406 74.13117188 38.53882813 73.26234375 38.81640625 72.3671875 C39.96348633 69.10387716 41.34039697 66.18916205 42.9375 63.125 C45.30252697 58.48746545 47.29827101 53.91610598 49 49 C52.95820859 49.56545837 55.6659053 50.80902348 59 53 C58.31065052 57.83502065 56.46191729 62.00878434 54.5 66.4375 C54.15412842 67.2315625 53.80825684 68.025625 53.4519043 68.84375 C51.05394273 74.1661461 48.20939447 78.7710939 44.8125 83.5 C42.65232131 86.58666021 41.01376938 88.9865738 40.9609375 92.875 C41.69406468 95.52371756 42.62206235 97.62785417 44 100 C44.32484375 100.61875 44.6496875 101.2375 44.984375 101.875 C46.86264681 105.07729948 48.68685229 106.50597097 52 108 C54.43046191 101.67162748 55.59060025 95.76215448 56 89 C59.98467756 89.82292254 62.67947232 91.66053731 66 94 C64.9363042 103.83918617 63.73018369 112.060027 57.6875 120.0625 C54.11809505 122.63579194 52.32504501 122.67112767 48 122 C38.98719574 118.20513505 34.97084267 110.55258421 31 102 C30.5359375 102.52207031 30.071875 103.04414063 29.59375 103.58203125 C24.69098503 108.80493946 19.49342925 113.0365463 13.625 117.125 C12.92310547 117.62233643 12.22121094 118.11967285 11.49804688 118.63208008 C10.83095703 119.08607178 10.16386719 119.54006348 9.4765625 120.0078125 C8.87924316 120.41660645 8.28192383 120.82540039 7.66650391 121.24658203 C6 122 6 122 3 121 C0.3125 118.6875 0.3125 118.6875 -2 116 C-2 114.68 -2 113.36 -2 112 C0.2734375 110.39453125 0.2734375 110.39453125 3.375 108.8125 C9.02447881 105.73340017 13.43130584 102.18875048 18.0390625 97.72265625 C20 96 20 96 22 96 C22.4021875 95.1028125 22.4021875 95.1028125 22.8125 94.1875 C24 92 24 92 25.62207031 90.76977539 C27.31382758 88.98728386 27.31382758 88.98728386 26.89746094 86.06420898 C26.67864258 84.88673096 26.45982422 83.70925293 26.234375 82.49609375 C26.00363281 81.19736328 25.77289062 79.89863281 25.53515625 78.56054688 C25.27420315 77.18605233 25.01247927 75.81170391 24.75 74.4375 C24.25940412 71.77064644 23.77778404 69.10220878 23.296875 66.43359375 C23.06677734 65.16499512 22.83667969 63.89639648 22.59960938 62.58935547 C21.84362282 58.06390174 21.37175759 53.57173327 21 49 C16.71 49.33 12.42 49.66 8 50 C7.93941406 52.00964844 7.87882813 54.01929688 7.81640625 56.08984375 C7.75384551 58.02922669 7.69125143 59.96860873 7.62768555 61.90795898 C7.58428777 63.25914147 7.5426163 64.61038053 7.50268555 65.96166992 C7.44510048 67.90036701 7.38085702 69.83886276 7.31640625 71.77734375 C7.27974854 72.94515381 7.24309082 74.11296387 7.20532227 75.31616211 C7 78 7 78 6 79 C4.14630389 79.08737645 2.28932459 79.10698153 0.43359375 79.09765625 C-0.69111328 79.09443359 -1.81582031 79.09121094 -2.97460938 79.08789062 C-4.15861328 79.07951172 -5.34261719 79.07113281 -6.5625 79.0625 C-7.75037109 79.05798828 -8.93824219 79.05347656 -10.16210938 79.04882812 C-13.10812226 79.03699675 -16.05403681 79.02051287 -19 79 C-19 81.97 -19 84.94 -19 88 C-9.43 88 0.14 88 10 88 C11.62651522 91.25303044 11.11453156 94.39225602 11 98 C10 99 10 99 7.22436523 99.11352539 C6.01466064 99.10828857 4.80495605 99.10305176 3.55859375 99.09765625 C2.25341797 99.09443359 0.94824219 99.09121094 -0.39648438 99.08789062 C-1.7851569 99.07953401 -3.17382877 99.07106905 -4.5625 99.0625 C-5.95507656 99.05748666 -7.34765481 99.05292347 -8.74023438 99.04882812 C-12.16017451 99.03699442 -15.5800925 99.01905831 -19 99 C-19 106.59 -19 114.18 -19 122 C-22.63 122 -26.26 122 -30 122 C-30 114.41 -30 106.82 -30 99 C-39.9 99 -49.8 99 -60 99 C-60 89 -60 89 -59 88 C-56.85441173 87.91224395 -54.70595579 87.89304781 -52.55859375 87.90234375 C-51.25341797 87.90556641 -49.94824219 87.90878906 -48.60351562 87.91210938 C-47.2148431 87.92046599 -45.82617123 87.92893095 -44.4375 87.9375 C-43.04492344 87.94251334 -41.65234519 87.94707653 -40.25976562 87.95117188 C-36.8398013 87.96300566 -33.41992156 87.9794912 -30 88 C-30 85.03 -30 82.06 -30 79 C-38.25 79 -46.5 79 -55 79 C-55 62.83 -55 46.66 -55 30 C-39.49 29.67 -23.98 29.34 -8 29 C-10.475 28.01 -10.475 28.01 -13 27 C-11.58481442 23.9992992 -10.16757567 20.99957233 -8.75 18 C-8.35425781 17.16082031 -7.95851563 16.32164063 -7.55078125 15.45703125 C-5.09826712 10.27056694 -2.58467342 5.12192163 0 0 Z M-45 40 C-45 43.3 -45 46.6 -45 50 C-40.05 50 -35.1 50 -30 50 C-30 46.7 -30 43.4 -30 40 C-34.95 40 -39.9 40 -45 40 Z M-19 40 C-19 43.3 -19 46.6 -19 50 C-14.05 50 -9.1 50 -4 50 C-4 46.7 -4 43.4 -4 40 C-8.95 40 -13.9 40 -19 40 Z M-45 59 C-45 62.3 -45 65.6 -45 69 C-40.05 69 -35.1 69 -30 69 C-30 65.7 -30 62.4 -30 59 C-34.95 59 -39.9 59 -45 59 Z M-19 59 C-19 62.3 -19 65.6 -19 69 C-14.05 69 -9.1 69 -4 69 C-4 65.7 -4 62.4 -4 59 C-8.95 59 -13.9 59 -19 59 Z " fill="#119DAD" transform="translate(669,80)"/>
<path d="M0 0 C16.83 0 33.66 0 51 0 C51.16043524 27.54138241 51.16043524 27.54138241 51.1953125 39.26171875 C51.2192439 47.26589635 51.24698911 55.26989265 51.30175781 63.27392578 C51.34515043 69.72540033 51.36912354 76.17667908 51.37950897 82.62828827 C51.38691211 85.09233433 51.40136828 87.55636941 51.42292023 90.02033234 C51.45186572 93.46594077 51.45595958 96.91073529 51.45410156 100.35644531 C51.46848267 101.37999619 51.48286377 102.40354706 51.49768066 103.45811462 C51.45720797 110.37305263 51.45720797 110.37305263 49.11297607 113.58758545 C44.19530545 116.87479236 40.00935804 117.26985006 34.1875 117.125 C33.49462891 117.11597656 32.80175781 117.10695313 32.08789062 117.09765625 C30.39177605 117.07426157 28.69584129 117.03839641 27 117 C26.01 114.69 25.02 112.38 24 110 C23.21882812 110.49113281 23.21882812 110.49113281 22.421875 110.9921875 C19.25287991 112.31089836 16.6701381 112.19340276 13.25 112.125 C12.07953125 112.10695313 10.9090625 112.08890625 9.703125 112.0703125 C8.81109375 112.04710937 7.9190625 112.02390625 7 112 C6.01 109.03 5.02 106.06 4 103 C8.29 103 12.58 103 17 103 C17 91.78 17 80.56 17 69 C10.79207086 69.03958027 10.79207086 69.03958027 4.58422852 69.09008789 C3.81522217 69.09258545 3.04621582 69.09508301 2.25390625 69.09765625 C1.46314697 69.10289307 0.6723877 69.10812988 -0.14233398 69.11352539 C-2 69 -2 69 -3 68 C-3 65.03 -3 62.06 -3 59 C3.6 59 10.2 59 17 59 C17 55.04 17 51.08 17 47 C19.97 47 22.94 47 26 47 C26 50.96 26 54.92 26 59 C29.3 59 32.6 59 36 59 C36.09765625 65.93359375 36.09765625 65.93359375 36 68 C35.67 68.33 35.34 68.66 35 69 C32.03 69 29.06 69 26 69 C26 80.88 26 92.76 26 105 C30.62 105 35.24 105 40 105 C40 84.87 40 64.74 40 44 C27.21006205 44.03960405 27.21006205 44.03960405 14.42016602 44.09008789 C12.8230801 44.09300703 11.22599345 44.09555559 9.62890625 44.09765625 C8.79194214 44.10277222 7.95497803 44.10788818 7.09265137 44.11315918 C5.06141735 44.11346924 3.03027529 44.06240188 1 44 C0 43 0 43 -0.12025452 41.24729919 C-0.11803391 40.48562943 -0.11581329 39.72395966 -0.11352539 38.93920898 C-0.11340454 38.06631226 -0.11328369 37.19341553 -0.11315918 36.29406738 C-0.10804321 35.37073608 -0.10292725 34.44740479 -0.09765625 33.49609375 C-0.09664917 32.6517981 -0.09564209 31.80750244 -0.09460449 30.93762207 C-0.0893557 27.77090098 -0.07539456 24.60419919 -0.0625 21.4375 C-0.041875 14.363125 -0.02125 7.28875 0 0 Z M11 9 C11 11.64 11 14.28 11 17 C20.57 17 30.14 17 40 17 C40 14.36 40 11.72 40 9 C30.43 9 20.86 9 11 9 Z M11 26 C11 28.64 11 31.28 11 34 C20.57 34 30.14 34 40 34 C40 31.36 40 28.72 40 26 C30.43 26 20.86 26 11 26 Z " fill="#64CA65" transform="translate(808,85)"/>
<path d="M0 0 C7.16603422 4.27578341 10.00861031 10.67116081 12.02044678 18.47146606 C13.01184609 23.4379212 13.08552325 28.32014623 13.1015625 33.37109375 C13.11714203 34.45584488 13.13272156 35.54059601 13.14877319 36.65821838 C13.19585829 40.0846393 13.22392538 43.51086058 13.25 46.9375 C13.28656702 50.38899351 13.32717995 53.84037566 13.37265015 57.29176331 C13.39975152 59.42966641 13.42115658 61.56765118 13.43618774 63.70567322 C13.44644989 64.67090408 13.45671204 65.63613495 13.46728516 66.63061523 C13.47378082 67.47679916 13.48027649 68.32298309 13.48696899 69.19480896 C13.62025257 71.42071544 14.00718533 73.36265205 14.625 75.5 C17.265 75.83 19.905 76.16 22.625 76.5 C22.625 79.14 22.625 81.78 22.625 84.5 C14.045 84.5 5.465 84.5 -3.375 84.5 C-3.38958252 82.66373047 -3.40416504 80.82746094 -3.41918945 78.93554688 C-3.47099395 72.84456892 -3.53632046 66.75385118 -3.61071491 60.66310883 C-3.6552983 56.97301958 -3.69458012 53.28303767 -3.72143555 49.59277344 C-3.7475897 46.02639148 -3.78807546 42.4604253 -3.83818626 38.89430237 C-3.86280439 36.88271527 -3.87286836 34.87096691 -3.88264465 32.85925293 C-3.95635248 22.1685054 -3.95635248 22.1685054 -8.7401886 12.85290527 C-11.56109039 10.51843849 -14.84666611 10.29914608 -18.375 10.5 C-23.20054372 12.63437511 -25.30900552 15.47122606 -27.61328125 20.01171875 C-29.62416206 26.58059605 -29.53310316 33.6975658 -29.54296875 40.515625 C-29.54629715 41.33448181 -29.54962555 42.15333862 -29.55305481 42.99700928 C-29.55807614 44.71121668 -29.56046464 46.42543369 -29.56030273 48.13964844 C-29.56250616 50.75732287 -29.58075834 53.3745864 -29.59960938 55.9921875 C-29.60254098 57.66666524 -29.60452733 59.34114496 -29.60546875 61.015625 C-29.61265427 61.7927887 -29.61983978 62.56995239 -29.62724304 63.3706665 C-29.60987696 67.49884912 -29.37337005 70.84036092 -27.375 74.5 C-25.45007643 75.52160437 -25.45007643 75.52160437 -23.25 75.8125 C-21.97125 76.039375 -20.6925 76.26625 -19.375 76.5 C-19.375 79.14 -19.375 81.78 -19.375 84.5 C-31.915 84.5 -44.455 84.5 -57.375 84.5 C-57.375 81.86 -57.375 79.22 -57.375 76.5 C-55.35677083 76.04427083 -53.33854167 75.58854167 -51.3203125 75.1328125 C-49.16780036 74.59525572 -49.16780036 74.59525572 -47.375 72.5 C-47.06085391 69.84398729 -47.06085391 69.84398729 -47.1003418 66.70507812 C-47.09080978 65.4904187 -47.08127777 64.27575928 -47.07145691 63.02429199 C-47.07236832 61.70658813 -47.07327972 60.38888428 -47.07421875 59.03125 C-47.07033336 57.67126331 -47.06599902 56.31127784 -47.06123352 54.95129395 C-47.05376689 52.09981351 -47.05406598 49.24845688 -47.05932617 46.39697266 C-47.06512538 42.73807726 -47.04818175 39.07968732 -47.0249815 35.42087555 C-47.01026978 32.61221338 -47.00936884 29.80367372 -47.01249123 26.99497986 C-47.01172629 24.98853328 -46.99783362 22.98210573 -46.98381042 20.97570801 C-46.99003922 19.76104858 -46.99626801 18.54638916 -47.00268555 17.29492188 C-47.00205612 16.22173706 -47.0014267 15.14855225 -47.0007782 14.04284668 C-47.12427139 13.20370728 -47.24776459 12.36456787 -47.375 11.5 C-50.65963659 9.31024227 -53.58196275 8.50193437 -57.375 7.5 C-57.375 5.19 -57.375 2.88 -57.375 0.5 C-49.125 0.5 -40.875 0.5 -32.375 0.5 C-31.715 3.47 -31.055 6.44 -30.375 9.5 C-29.95089844 8.95730469 -29.52679688 8.41460937 -29.08984375 7.85546875 C-21.67685236 -1.18675151 -11.28714919 -4.87448861 0 0 Z " fill="#37B493" transform="translate(226.375,98.5)"/>
<path d="M0 0 C3.63 0 7.26 0 11 0 C11.66 11.88 12.32 23.76 13 36 C15.7225 35.525625 18.445 35.05125 21.25 34.5625 C36.06793744 32.05182851 36.06793744 32.05182851 43 32 C44.66342837 33.66342837 44.36048097 35.7825709 44.5625 38.0625 C44.68818359 39.44115234 44.68818359 39.44115234 44.81640625 40.84765625 C44.87699219 41.55792969 44.93757812 42.26820312 45 43 C40.90681458 43.57138954 36.8133874 44.14101067 32.71972656 44.70898438 C31.32675503 44.90250676 29.93385087 45.09651473 28.54101562 45.29101562 C26.54054197 45.57028403 24.5398057 45.84766926 22.5390625 46.125 C20.73236084 46.37636719 20.73236084 46.37636719 18.88916016 46.6328125 C16 47 16 47 14 47 C14.09087891 47.59949463 14.18175781 48.19898926 14.27539062 48.81665039 C14.68888026 51.56450105 15.09449382 54.31346034 15.5 57.0625 C15.64308594 58.00544922 15.78617188 58.94839844 15.93359375 59.91992188 C16.67809139 65.00732242 17.17113566 69.8587994 17 75 C17.66 75 18.32 75 19 75 C19.26941406 74.13117188 19.53882813 73.26234375 19.81640625 72.3671875 C20.96348633 69.10387716 22.34039697 66.18916205 23.9375 63.125 C26.30252697 58.48746545 28.29827101 53.91610598 30 49 C33.95820859 49.56545837 36.6659053 50.80902348 40 53 C39.31065052 57.83502065 37.46191729 62.00878434 35.5 66.4375 C35.15412842 67.2315625 34.80825684 68.025625 34.4519043 68.84375 C32.05394273 74.1661461 29.20939447 78.7710939 25.8125 83.5 C23.65232131 86.58666021 22.01376938 88.9865738 21.9609375 92.875 C22.69406468 95.52371756 23.62206235 97.62785417 25 100 C25.32484375 100.61875 25.6496875 101.2375 25.984375 101.875 C27.86264681 105.07729948 29.68685229 106.50597097 33 108 C35.43046191 101.67162748 36.59060025 95.76215448 37 89 C40.98467756 89.82292254 43.67947232 91.66053731 47 94 C45.9363042 103.83918617 44.73018369 112.060027 38.6875 120.0625 C35.11809505 122.63579194 33.32504501 122.67112767 29 122 C19.98719574 118.20513505 15.97084267 110.55258421 12 102 C11.5359375 102.52207031 11.071875 103.04414063 10.59375 103.58203125 C5.69098503 108.80493946 0.49342925 113.0365463 -5.375 117.125 C-6.07689453 117.62233643 -6.77878906 118.11967285 -7.50195312 118.63208008 C-8.50258789 119.31306763 -8.50258789 119.31306763 -9.5234375 120.0078125 C-10.12075684 120.41660645 -10.71807617 120.82540039 -11.33349609 121.24658203 C-13 122 -13 122 -16 121 C-18.6875 118.6875 -18.6875 118.6875 -21 116 C-21 114.68 -21 113.36 -21 112 C-18.7265625 110.39453125 -18.7265625 110.39453125 -15.625 108.8125 C-9.97552119 105.73340017 -5.56869416 102.18875048 -0.9609375 97.72265625 C1 96 1 96 3 96 C3.268125 95.401875 3.53625 94.80375 3.8125 94.1875 C5 92 5 92 6.62207031 90.76977539 C8.31382758 88.98728386 8.31382758 88.98728386 7.89746094 86.06420898 C7.5692334 84.29799194 7.5692334 84.29799194 7.234375 82.49609375 C7.00363281 81.19736328 6.77289062 79.89863281 6.53515625 78.56054688 C6.27420315 77.18605233 6.01247927 75.81170391 5.75 74.4375 C5.25940412 71.77064644 4.77778404 69.10220878 4.296875 66.43359375 C3.95172852 64.5306958 3.95172852 64.5306958 3.59960938 62.58935547 C2.84362282 58.06390174 2.37175759 53.57173327 2 49 C-4.435 49.495 -4.435 49.495 -11 50 C-11.66 48.02 -12.32 46.04 -13 44 C-12.01 44 -11.02 44 -10 44 C-10 43.01 -10 42.02 -10 41 C-10.66 41 -11.32 41 -12 41 C-12 40.34 -12 39.68 -12 39 C-7.71 38.34 -3.42 37.68 1 37 C0.93417725 35.91468994 0.86835449 34.82937988 0.80053711 33.71118164 C0.55859396 29.69911496 0.32352651 25.68667031 0.09057617 21.67407227 C-0.01137622 19.93470272 -0.11521384 18.19544263 -0.22094727 16.45629883 C-0.37226682 13.96201259 -0.51688713 11.46741618 -0.66015625 8.97265625 C-0.70906509 8.19036148 -0.75797394 7.40806671 -0.80836487 6.60206604 C-0.91221344 4.73650663 -0.9617076 2.86805517 -1 1 C-0.67 0.67 -0.34 0.34 0 0 Z " fill="#25AC9F" transform="translate(688,80)"/>
<path d="M0 0 C9.29254336 7.27242523 12.74824886 16.70567298 14.55859375 28.1875 C16.0130001 42.26471699 16.14396811 60.67531843 6.875 72.25 C0.70451929 79.04473168 -5.06061873 82.64047567 -14.1953125 83.55859375 C-23.83445592 83.93458871 -32.21511811 82.31878501 -39.5 75.6875 C-48.70448758 65.53992968 -50.5104711 52.67024184 -50.4375 39.5 C-50.43186035 38.43958496 -50.4262207 37.37916992 -50.42041016 36.28662109 C-50.22597909 23.72945401 -48.60625125 11.69968479 -39.2734375 2.40625 C-27.6004749 -7.08093872 -12.81958933 -7.17897002 0 0 Z M-27.125 8.25 C-36.49206004 19.69862894 -35.15673206 38.74509178 -33.78125 52.75 C-32.46268198 60.66140813 -30.43236399 66.88874061 -24.125 72.25 C-19.65073668 73.74142111 -15.80585977 73.99270548 -11.4375 72.0625 C-5.23586681 67.20176048 -3.5666909 61.78661716 -2.125 54.25 C-1.74694718 49.77213395 -1.65010133 45.32773571 -1.67895508 40.8347168 C-1.68747756 38.81781086 -1.65857403 36.80373869 -1.62695312 34.78710938 C-1.63172803 25.07973664 -2.77094784 16.28107825 -8.25 8.0625 C-14.26395008 4.27109669 -21.29653595 3.94803844 -27.125 8.25 Z " fill="#55C375" transform="translate(356.125,101.75)"/>
<path d="M0 0 C7.33896625 5.55551854 10.44545468 13.85330946 11.79296875 22.7265625 C12.30492927 28.38738308 12.41006671 34.07560643 12.06640625 39.75 C11.06640625 40.75 11.06640625 40.75 9.31370544 40.87025452 C8.55203568 40.86803391 7.79036591 40.86581329 7.00561523 40.86352539 C6.14479843 40.86344986 5.28398163 40.86337433 4.39707947 40.86329651 C3.46166824 40.85813522 2.52625702 40.85297394 1.5625 40.84765625 C0.60948502 40.8462413 -0.34352997 40.84482635 -1.32542419 40.84336853 C-4.3823454 40.83775152 -7.43919452 40.82519616 -10.49609375 40.8125 C-12.56314999 40.80748719 -14.63020737 40.80292391 -16.69726562 40.79882812 C-21.77606963 40.78777656 -26.85481945 40.77050055 -31.93359375 40.75 C-31.48956812 43.46242156 -31.03647379 46.17280615 -30.578125 48.8828125 C-30.39256042 50.02520386 -30.39256042 50.02520386 -30.20324707 51.19067383 C-28.9616068 58.4528029 -27.22980507 65.14369338 -21.24609375 69.875 C-15.4915257 71.39507458 -10.2841817 71.54831289 -4.62109375 69.625 C-0.84407078 66.98986769 1.9826536 63.9175053 4.06640625 59.75 C7.94140625 61.625 7.94140625 61.625 9.06640625 62.75 C9.20660196 67.50664005 8.53010422 71.00527296 6.00390625 75.0625 C-1.1177625 81.57806928 -8.39761598 83.0606429 -17.828125 82.96875 C-26.21641717 82.37787659 -33.14146809 78.83057968 -38.99609375 72.8125 C-49.06800562 60.56717556 -48.74466086 43.70123367 -47.93359375 28.75 C-46.76975078 17.75895791 -43.32190059 7.29564588 -34.93359375 -0.25 C-23.67678911 -7.42132342 -11.12787831 -7.19377992 0 0 Z M-25.93359375 7.75 C-30.13953292 14.96018144 -31.93359375 22.44525199 -31.93359375 30.75 C-22.69359375 30.75 -13.45359375 30.75 -3.93359375 30.75 C-4.46442988 21.24267696 -4.46442988 21.24267696 -6.74609375 12.6875 C-7.06191406 11.80964844 -7.37773437 10.93179688 -7.703125 10.02734375 C-9.12649101 7.39298698 -10.34782014 6.23921406 -12.93359375 4.75 C-18.1316538 4.25494666 -21.91739557 4.068485 -25.93359375 7.75 Z " fill="#17A4A8" transform="translate(148.93359375,102.25)"/>
<path d="M0 0 C16.5 0 33 0 50 0 C50 14.52 50 29.04 50 44 C37.13 44 24.26 44 11 44 C11 68.09 11 92.18 11 117 C7.37 117 3.74 117 0 117 C0 78.39 0 39.78 0 0 Z M11 9 C11 11.64 11 14.28 11 17 C20.24 17 29.48 17 39 17 C39 14.36 39 11.72 39 9 C29.76 9 20.52 9 11 9 Z M11 26 C11 28.64 11 31.28 11 34 C20.24 34 29.48 34 39 34 C39 31.36 39 28.72 39 26 C29.76 26 20.52 26 11 26 Z " fill="#40B989" transform="translate(748,85)"/>
<path d="M0 0 C3.28513828 2.5215226 5.30597567 4.80418854 6.17578125 8.86328125 C6.09827533 13.2036127 5.59522406 15.30002948 2.98828125 18.80078125 C-0.27796019 21.19602497 -1.86742047 21.32337407 -5.82421875 20.86328125 C-5.91058594 20.19941406 -5.99695313 19.53554687 -6.0859375 18.8515625 C-6.77972897 14.49149685 -7.43756652 11.43188748 -9.94921875 7.73828125 C-13.97362821 5.11366639 -16.06452206 5.33442606 -20.82421875 5.86328125 C-23.43782118 6.68862939 -24.41896597 7.33645263 -26.07421875 9.48828125 C-27.63691234 14.43681096 -27.64108083 18.17283056 -25.41796875 22.7734375 C-22.34142603 27.11036589 -17.58287246 29.08220892 -12.94921875 31.42578125 C-4.2081108 35.92357115 2.97617938 39.64411895 7.2578125 48.9140625 C9.40814495 55.82257741 9.55690619 63.77290177 6.48828125 70.42578125 C2.37596181 77.14591302 -3.26920758 81.12232929 -10.71875 83.45703125 C-19.38567157 85.12931296 -29.05864171 84.34415867 -36.70703125 79.7265625 C-39.99260347 77.21079826 -41.88980997 74.88123901 -42.82421875 70.86328125 C-43.40210759 65.70431001 -43.16986654 62.07631921 -39.82421875 57.86328125 C-36.5963032 55.71133755 -35.54021066 55.66241682 -31.82421875 55.86328125 C-31.63085938 56.683125 -31.4375 57.50296875 -31.23828125 58.34765625 C-30.84769531 59.96414062 -30.84769531 59.96414062 -30.44921875 61.61328125 C-30.19398437 62.680625 -29.93875 63.74796875 -29.67578125 64.84765625 C-28.34988228 69.82907155 -28.34988228 69.82907155 -24.69921875 73.11328125 C-19.23796395 74.53795641 -15.44860995 74.67547685 -10.44921875 72.17578125 C-7.57660218 69.64514284 -6.57005228 68.5924489 -5.82421875 64.86328125 C-5.68825041 60.19786758 -5.82319983 57.07866751 -8.8671875 53.3828125 C-12.37993704 50.38978284 -16.04675333 48.26991558 -20.07421875 46.05078125 C-27.81693806 41.62412732 -34.94548122 37.31223925 -39.88671875 29.67578125 C-41.7004711 22.29985502 -42.18588684 13.6567657 -38.98828125 6.57421875 C-30.62930211 -5.71179756 -12.00018018 -7.47762833 0 0 Z " fill="#0C9AAF" transform="translate(81.82421875,101.13671875)"/>
<path d="M0 0 C2.64 0 5.28 0 8 0 C8 6.6 8 13.2 8 20 C13.94 20 19.88 20 26 20 C26 22.64 26 25.28 26 28 C25 29 25 29 21.18359375 29.09765625 C19.60153318 29.09098089 18.01948841 29.07901875 16.4375 29.0625 C15.63119141 29.05798828 14.82488281 29.05347656 13.99414062 29.04882812 C11.99606244 29.03700518 9.99802217 29.01906914 8 29 C8.09287729 36.48922882 8.20025642 43.97815251 8.31738281 51.46704102 C8.35549849 54.01093923 8.39038065 56.55488815 8.421875 59.09887695 C8.4679055 62.77052851 8.5258357 66.44183622 8.5859375 70.11328125 C8.59748871 71.23769119 8.60903992 72.36210114 8.62094116 73.52058411 C8.74991237 80.53258446 9.51552562 87.14452186 11 94 C15.00750012 94.75140627 18.32631858 95.07733905 22.375 94.5 C23.57125 94.335 24.7675 94.17 26 94 C27 95 27 95 27.09765625 96.84765625 C27.06510417 98.8984375 27.03255208 100.94921875 27 103 C19.77007273 105.99908094 12.33791233 107.66028711 4.6640625 105.2734375 C-0.6845883 102.82777189 -3.91673418 99.77565624 -6.08935547 94.20874023 C-7.69530361 88.28224685 -7.24371251 82.05946554 -7.1953125 75.97265625 C-7.19157681 74.61502797 -7.18873247 73.25739697 -7.18673706 71.89976501 C-7.17914431 68.34712118 -7.15953397 64.79464397 -7.1373291 61.24206543 C-7.11677613 57.6086655 -7.10771524 53.97523833 -7.09765625 50.34179688 C-7.07628339 43.22779691 -7.04220087 36.1139094 -7 29 C-10.3 29 -13.6 29 -17 29 C-17 26.69 -17 24.38 -17 22 C-16.48050781 21.78085938 -15.96101562 21.56171875 -15.42578125 21.3359375 C-10.58707671 19.13571325 -6.58014202 16.82672955 -4 12 C-3.03806083 9.11820734 -2.26497374 6.25200897 -1.578125 3.29296875 C-1 1 -1 1 0 0 Z " fill="#42BC85" transform="translate(271,79)"/>
<path d="M0 0 C8.25 0 16.5 0 25 0 C25.71614583 3.3203125 26.43229167 6.640625 27.1484375 9.9609375 C27.75523965 13.08196967 27.75523965 13.08196967 30 15 C29.34 15 28.68 15 28 15 C27.94928236 22.59884796 27.91425893 30.19765224 27.89013672 37.79663086 C27.88008033 40.38160839 27.86643351 42.96657455 27.84912109 45.55151367 C27.82485729 49.26744392 27.81351316 52.98322373 27.8046875 56.69921875 C27.79436493 57.85459641 27.78404236 59.00997406 27.77340698 60.20036316 C27.77325592 61.28110611 27.77310486 62.36184906 27.77294922 63.4753418 C27.76628738 64.89764351 27.76628738 64.89764351 27.75949097 66.34867859 C28.02343736 69.25836858 28.69474353 71.39209491 30 74 C31.92492357 75.02160437 31.92492357 75.02160437 34.125 75.3125 C35.40375 75.539375 36.6825 75.76625 38 76 C38 78.64 38 81.28 38 84 C25.46 84 12.92 84 0 84 C0 81.36 0 78.72 0 76 C2.01822917 75.54427083 4.03645833 75.08854167 6.0546875 74.6328125 C8.20719964 74.09525572 8.20719964 74.09525572 10 72 C10.31414609 69.34398729 10.31414609 69.34398729 10.2746582 66.20507812 C10.28419022 64.9904187 10.29372223 63.77575928 10.30354309 62.52429199 C10.30263168 61.20658813 10.30172028 59.88888428 10.30078125 58.53125 C10.30466664 57.17126331 10.30900098 55.81127784 10.31376648 54.45129395 C10.32123311 51.59981351 10.32093402 48.74845688 10.31567383 45.89697266 C10.30987462 42.23807726 10.32681825 38.57968732 10.3500185 34.92087555 C10.36473022 32.11221338 10.36563116 29.30367372 10.36250877 26.49497986 C10.36327371 24.48853328 10.37716638 22.48210573 10.39118958 20.47570801 C10.38496078 19.26104858 10.37873199 18.04638916 10.37231445 16.79492188 C10.37294388 15.72173706 10.3735733 14.64855225 10.3742218 13.54284668 C10.25072861 12.70370728 10.12723541 11.86456787 10 11 C6.71536341 8.81024227 3.79303725 8.00193437 0 7 C0 4.69 0 2.38 0 0 Z " fill="#2BAE9B" transform="translate(169,99)"/>
<path d="M0 0 C0.72726791 -0.00095673 1.45453583 -0.00191345 2.20384216 -0.00289917 C3.74128303 -0.00357985 5.27872676 -0.00173335 6.81616211 0.00244141 C9.17763675 0.00779899 11.53892186 0.00248873 13.90039062 -0.00390625 C15.39192751 -0.0032456 16.88346427 -0.00196471 18.375 0 C19.08539932 -0.00202423 19.79579865 -0.00404846 20.52772522 -0.00613403 C25.50613661 0.01785536 25.50613661 0.01785536 26.62109375 1.1328125 C26.70835598 2.91352496 26.72808416 4.6976439 26.71875 6.48046875 C26.71552734 7.56005859 26.71230469 8.63964844 26.70898438 9.75195312 C26.69641602 11.45641602 26.69641602 11.45641602 26.68359375 13.1953125 C26.67908203 14.33548828 26.67457031 15.47566406 26.66992188 16.65039062 C26.65809122 19.47791601 26.64160785 22.3053389 26.62109375 25.1328125 C25.63109375 25.4628125 24.64109375 25.7928125 23.62109375 26.1328125 C23.43546875 27.215625 23.43546875 27.215625 23.24609375 28.3203125 C22.63060065 31.09003144 21.73665001 33.5298479 20.62109375 36.1328125 C21.33136719 36.12121094 22.04164063 36.10960937 22.7734375 36.09765625 C23.69253906 36.08863281 24.61164062 36.07960937 25.55859375 36.0703125 C26.47511719 36.05871094 27.39164063 36.04710937 28.3359375 36.03515625 C30.62109375 36.1328125 30.62109375 36.1328125 31.62109375 37.1328125 C31.66202312 39.46578683 31.66351098 41.79986475 31.62109375 44.1328125 C26.95062662 45.55584545 22.47525792 46.55443941 17.62109375 47.203125 C16.32171875 47.37714844 15.02234375 47.55117187 13.68359375 47.73046875 C13.01585937 47.81699707 12.348125 47.90352539 11.66015625 47.99267578 C9.62524783 48.25727235 7.59194926 48.53234396 5.55859375 48.80859375 C-0.47827515 49.60512506 -6.28006718 50.23296882 -12.37890625 50.1328125 C-12.70890625 47.1628125 -13.03890625 44.1928125 -13.37890625 41.1328125 C-8.42890625 40.6378125 -8.42890625 40.6378125 -3.37890625 40.1328125 C-3.87390625 38.5653125 -4.36890625 36.9978125 -4.87890625 35.3828125 C-5.95193324 31.9848937 -6.37890625 29.76642828 -6.37890625 26.1328125 C-7.36890625 25.8028125 -8.35890625 25.4728125 -9.37890625 25.1328125 C-9.37890625 17.2128125 -9.37890625 9.2928125 -9.37890625 1.1328125 C-6.3773777 -0.36795177 -3.29070615 -0.00940342 0 0 Z M-0.37890625 9.1328125 C-0.37890625 11.7728125 -0.37890625 14.4128125 -0.37890625 17.1328125 C5.56109375 17.1328125 11.50109375 17.1328125 17.62109375 17.1328125 C17.62109375 14.4928125 17.62109375 11.8528125 17.62109375 9.1328125 C11.68109375 9.1328125 5.74109375 9.1328125 -0.37890625 9.1328125 Z M0.62109375 25.1328125 C1.19859375 27.2571875 1.77609375 29.3815625 2.37109375 31.5703125 C2.6959375 32.76527344 3.02078125 33.96023437 3.35546875 35.19140625 C4.28709739 38.2289467 4.28709739 38.2289467 6.57421875 39.10546875 C8.82442477 39.24774198 8.82442477 39.24774198 11.62109375 38.1328125 C12.65656422 35.10998607 12.65656422 35.10998607 13.30859375 31.5703125 C13.74171875 29.4459375 14.17484375 27.3215625 14.62109375 25.1328125 C10.00109375 25.1328125 5.38109375 25.1328125 0.62109375 25.1328125 Z " fill="#4BBE80" transform="translate(776.37890625,146.8671875)"/>
<path d="M0 0 C5.14027984 1.18621842 7.44149865 4.43133126 10.25 8.75 C18.36636335 25.43503178 18.00826892 45.16174283 13.25 62.75 C10.55395221 70.11919729 5.51747946 75.14915366 -0.75 79.75 C-4.51624671 81.00541557 -6.12188934 80.12061958 -9.75 78.75 C-9.09 76.77 -8.43 74.79 -7.75 72.75 C-7.09 72.75 -6.43 72.75 -5.75 72.75 C-5.62882812 72.04875 -5.50765625 71.3475 -5.3828125 70.625 C-5.21523438 69.67625 -5.04765625 68.7275 -4.875 67.75 C-4.71257812 66.821875 -4.55015625 65.89375 -4.3828125 64.9375 C-3.75 61.75 -3.75 61.75 -2.6953125 58.31640625 C-1.23155727 52.54491114 -1.45231875 46.64389378 -1.48925781 40.72583008 C-1.49984805 38.71633204 -1.48836568 36.7067569 -1.4765625 34.69726562 C-1.03281779 19.06067108 -1.03281779 19.06067108 -5.75 4.75 C-4.11946481 1.85127078 -3.25813243 0.88858157 0 0 Z " fill="#62C969" transform="translate(354.75,102.25)"/>
<path d="M0 0 C5.445 1.485 5.445 1.485 11 3 C10.19879978 7.00600109 9.68392612 8.96379706 7.78515625 12.3203125 C7.34623047 13.10277344 6.90730469 13.88523437 6.45507812 14.69140625 C5.76575195 15.89603516 5.76575195 15.89603516 5.0625 17.125 C4.60681641 17.93582031 4.15113281 18.74664062 3.68164062 19.58203125 C1.86858357 22.79403569 0.04711403 25.92932895 -2 29 C-0.700625 29.144375 0.59875 29.28875 1.9375 29.4375 C5.875 29.875 5.875 29.875 7 31 C7.07205511 32.68608966 7.08386068 34.37500659 7.0625 36.0625 C7.05347656 36.98160156 7.04445313 37.90070313 7.03515625 38.84765625 C7.02355469 39.55792969 7.01195312 40.26820312 7 41 C7.66 41 8.32 41 9 41 C9 41.99 9 42.98 9 44 C8.01 44.495 8.01 44.495 7 45 C7.00523682 45.99443115 7.01047363 46.9888623 7.01586914 48.01342773 C7.03392041 51.69033921 7.04543246 55.36724675 7.05493164 59.04418945 C7.05997157 60.63794614 7.0668035 62.23169819 7.07543945 63.82543945 C7.08751999 66.11150253 7.09323155 68.39750467 7.09765625 70.68359375 C7.10281754 71.40026718 7.10797882 72.11694061 7.11329651 72.85533142 C7.11349263 74.57063672 7.06192007 76.28581266 7 78 C6 79 6 79 3.59155273 79.11352539 C2.54942627 79.10828857 1.5072998 79.10305176 0.43359375 79.09765625 C-0.69111328 79.09443359 -1.81582031 79.09121094 -2.97460938 79.08789062 C-4.15861328 79.07951172 -5.34261719 79.07113281 -6.5625 79.0625 C-7.75037109 79.05798828 -8.93824219 79.05347656 -10.16210938 79.04882812 C-13.10812226 79.03699675 -16.05403681 79.02051287 -19 79 C-18.83242188 78.44570312 -18.66484375 77.89140625 -18.4921875 77.3203125 C-18.28851562 76.59585938 -18.08484375 75.87140625 -17.875 75.125 C-17.66617188 74.40570313 -17.45734375 73.68640625 -17.2421875 72.9453125 C-17.16226563 72.30335938 -17.08234375 71.66140625 -17 71 C-17.99 70.01 -17.99 70.01 -19 69 C-14.05 69 -9.1 69 -4 69 C-4 65.7 -4 62.4 -4 59 C-8.95 59 -13.9 59 -19 59 C-18.34 57.02 -17.68 55.04 -17 53 C-16.01 53 -15.02 53 -14 53 C-14 52.34 -14 51.68 -14 51 C-15.65 51 -17.3 51 -19 51 C-19 50.67 -19 50.34 -19 50 C-14.05 50 -9.1 50 -4 50 C-4 46.7 -4 43.4 -4 40 C-3.34 40 -2.68 40 -2 40 C-1.34 42.97 -0.68 45.94 0 49 C0.66 48.01 1.32 47.02 2 46 C2.99 46 3.98 46 5 46 C4.505 41.545 4.505 41.545 4 37 C3.67 37 3.34 37 3 37 C3 35.35 3 33.7 3 32 C-15.81 31.67 -34.62 31.34 -54 31 C-54 46.51 -54 62.02 -54 78 C-45.81747203 77.9604086 -45.81747203 77.9604086 -37.63500977 77.90991211 C-36.11605103 77.90616577 -36.11605103 77.90616577 -34.56640625 77.90234375 C-33.52427979 77.89710693 -32.48215332 77.89187012 -31.40844727 77.88647461 C-29 78 -29 78 -28 79 C-27.92820036 80.51928038 -27.91607993 82.04167482 -27.9375 83.5625 C-27.94652344 84.38878906 -27.95554687 85.21507812 -27.96484375 86.06640625 C-27.97644531 86.70449219 -27.98804688 87.34257812 -28 88 C-28.66 88 -29.32 88 -30 88 C-30 85.03 -30 82.06 -30 79 C-38.25 79 -46.5 79 -55 79 C-55 62.83 -55 46.66 -55 30 C-39.49 29.67 -23.98 29.34 -8 29 C-10.475 28.01 -10.475 28.01 -13 27 C-11.58481442 23.9992992 -10.16757567 20.99957233 -8.75 18 C-8.35425781 17.16082031 -7.95851563 16.32164063 -7.55078125 15.45703125 C-5.09826712 10.27056694 -2.58467342 5.12192163 0 0 Z " fill="#1DA1A6" transform="translate(669,80)"/>
<path d="M0 0 C7.33896625 5.55551854 10.44545468 13.85330946 11.79296875 22.7265625 C12.30492927 28.38738308 12.41006671 34.07560643 12.06640625 39.75 C11.06640625 40.75 11.06640625 40.75 8.29077148 40.86352539 C7.08106689 40.85828857 5.8713623 40.85305176 4.625 40.84765625 C3.31982422 40.84443359 2.01464844 40.84121094 0.66992188 40.83789062 C-0.71875065 40.82953401 -2.10742252 40.82106905 -3.49609375 40.8125 C-4.88867031 40.80748666 -6.28124856 40.80292347 -7.67382812 40.79882812 C-11.09379245 40.78699434 -14.51367219 40.7705088 -17.93359375 40.75 C-17.93359375 40.42 -17.93359375 40.09 -17.93359375 39.75 C-19.89123758 39.55543295 -21.84974696 39.36955753 -23.80859375 39.1875 C-25.44441406 39.03087891 -25.44441406 39.03087891 -27.11328125 38.87109375 C-29.88511398 38.52360596 -29.88511398 38.52360596 -31.93359375 39.75 C-32.55859375 37.875 -32.55859375 37.875 -32.93359375 35.75 C-32.27359375 35.09 -31.61359375 34.43 -30.93359375 33.75 C-31.70703125 33.2240625 -31.70703125 33.2240625 -32.49609375 32.6875 C-33.93359375 30.75 -33.93359375 30.75 -33.74609375 27.3125 C-32.93359375 23.75 -32.93359375 23.75 -30.93359375 19.75 C-31.26359375 23.38 -31.59359375 27.01 -31.93359375 30.75 C-22.69359375 30.75 -13.45359375 30.75 -3.93359375 30.75 C-5.55275358 18.04735784 -5.55275358 18.04735784 -10.93359375 6.75 C-13.90535122 5.54690096 -16.74809724 5.02226466 -19.93359375 4.75 C-19.27359375 3.1 -18.61359375 1.45 -17.93359375 -0.25 C-17.27359375 0.41 -16.61359375 1.07 -15.93359375 1.75 C-13.86485341 2.3925235 -13.86485341 2.3925235 -11.93359375 2.75 C-11.93359375 3.41 -11.93359375 4.07 -11.93359375 4.75 C-11.17046875 4.688125 -10.40734375 4.62625 -9.62109375 4.5625 C-6.37150999 4.78921515 -6.13273295 5.5508608 -3.93359375 7.75 C-1.30788671 8.00069913 -1.30788671 8.00069913 1.06640625 7.75 C0.57140625 5.77 0.57140625 5.77 0.06640625 3.75 C-0.92359375 3.75 -1.91359375 3.75 -2.93359375 3.75 C-3.26359375 4.74 -3.59359375 5.73 -3.93359375 6.75 C-4.59359375 5.76 -5.25359375 4.77 -5.93359375 3.75 C-5.27359375 2.43 -4.61359375 1.11 -3.93359375 -0.25 C-9.31566452 -2.49105897 -14.09104919 -2.48693988 -19.80859375 -2.375 C-20.68773437 -2.36597656 -21.566875 -2.35695313 -22.47265625 -2.34765625 C-24.62642085 -2.32424577 -26.78004389 -2.2883801 -28.93359375 -2.25 C-21.4633928 -9.72020095 -7.59636781 -4.91078323 0 0 Z " fill="#23A7A1" transform="translate(148.93359375,102.25)"/>
<path d="M0 0 C16.5 0 33 0 50 0 C50 14.52 50 29.04 50 44 C37.46 44 24.92 44 12 44 C12 43.67 12 43.34 12 43 C12.95366455 42.96036133 13.9073291 42.92072266 14.88989258 42.87988281 C18.43002476 42.72766524 21.96852327 42.55025695 25.50708008 42.36523438 C27.03832736 42.28869633 28.56993166 42.21898222 30.10180664 42.15625 C32.30484554 42.06484352 34.50543144 41.94890343 36.70703125 41.828125 C37.39150833 41.80502258 38.07598541 41.78192017 38.78120422 41.75811768 C42.0515415 41.55519205 43.59861299 41.4498275 45.83081055 38.94824219 C46.21664307 38.30532227 46.60247559 37.66240234 47 37 C47.66 37 48.32 37 49 37 C48.835 35.865625 48.67 34.73125 48.5 33.5625 C47.8378742 28.26549361 47.94815639 23.03803538 48.0390625 17.7109375 C48.09066253 12.70573481 47.72080872 7.95555992 47 3 C45.68 2.67 44.36 2.34 43 2 C42.24758891 5.65456815 41.59950296 9.31733897 41 13 C41.66 13 42.32 13 43 13 C42.67 15.31 42.34 17.62 42 20 C42.66 20.33 43.32 20.66 44 21 C43.34 21 42.68 21 42 21 C42.20625 21.721875 42.4125 22.44375 42.625 23.1875 C43.05952211 26.44641585 42.41680669 28.08304504 41 31 C41.66 31.33 42.32 31.66 43 32 C43.33 32.66 43.66 33.32 44 34 C43.01 34 42.02 34 41 34 C40.34 35.65 39.68 37.3 39 39 C38.67 38.34 38.34 37.68 38 37 C37.01 36.505 37.01 36.505 36 36 C36.99 36 37.98 36 39 36 C39.33 32.37 39.66 28.74 40 25 C38.68 24.34 37.36 23.68 36 23 C36.66 22.01 37.32 21.02 38 20 C35.37276604 18.68638302 33.27389439 18.78746091 30.3359375 18.68359375 C29.21445312 18.64169922 28.09296875 18.59980469 26.9375 18.55664062 C25.761875 18.51732422 24.58625 18.47800781 23.375 18.4375 C22.19164062 18.39431641 21.00828125 18.35113281 19.7890625 18.30664062 C16.85949672 18.20032574 13.92984412 18.09829358 11 18 C9.80712589 14.12315913 9 11.08378077 9 7 C9.99 7 10.98 7 12 7 C12.37125 6.0409375 12.37125 6.0409375 12.75 5.0625 C14 3 14 3 18 2 C12.39 1.67 6.78 1.34 1 1 C0.67 1.66 0.34 2.32 0 3 C0 2.01 0 1.02 0 0 Z M11 9 C11 11.64 11 14.28 11 17 C20.24 17 29.48 17 39 17 C39 14.36 39 11.72 39 9 C29.76 9 20.52 9 11 9 Z " fill="#4CBB84" transform="translate(748,85)"/>
<path d="M0 0 C3.875 1.875 3.875 1.875 5 3 C5.14019571 7.75664005 4.46369797 11.25527296 1.9375 15.3125 C-5.18416875 21.82806928 -12.46402223 23.3106429 -21.89453125 23.21875 C-28.9268003 22.7233952 -34.40822366 20.15798753 -40 16 C-39.01 16 -38.02 16 -37 16 C-34.43549931 15.56215842 -32.33103593 15.16551796 -30 14 C-29.27840576 12.35636866 -28.60648579 10.68949614 -28 9 C-27.21625 9.33 -26.4325 9.66 -25.625 10 C-19.81504446 11.60274636 -14.42750326 11.82443507 -8.6875 9.875 C-4.91047703 7.23986769 -2.08375265 4.1675053 0 0 Z " fill="#1EAAA2" transform="translate(153,162)"/>
<path d="M0 0 C0.495 4.95 0.495 4.95 1 10 C-3.09318542 10.57138954 -7.1866126 11.14101067 -11.28027344 11.70898438 C-12.67324497 11.90250676 -14.06614913 12.09651473 -15.45898438 12.29101562 C-17.45945803 12.57028403 -19.4601943 12.84766926 -21.4609375 13.125 C-23.26763916 13.37636719 -23.26763916 13.37636719 -25.11083984 13.6328125 C-28 14 -28 14 -30 14 C-30 16.31 -30 18.62 -30 21 C-30.99 20.67 -31.98 20.34 -33 20 C-33.33 17.69 -33.66 15.38 -34 13 C-32.35 13 -30.7 13 -29 13 C-29.33 12.34 -29.66 11.68 -30 11 C-32.02463255 10.34786708 -32.02463255 10.34786708 -34 10 C-34 9.01 -34 8.02 -34 7 C-33.34 6.67 -32.68 6.34 -32 6 C-32.33 5.01 -32.66 4.02 -33 3 C-32.34 2.01 -31.68 1.02 -31 0 C-31 0.99 -31 1.98 -31 3 C-29.80503906 2.79503906 -28.61007812 2.59007813 -27.37890625 2.37890625 C-25.77346009 2.1066376 -24.16799005 1.83450974 -22.5625 1.5625 C-21.77939453 1.42779297 -20.99628906 1.29308594 -20.18945312 1.15429688 C-16.18631208 0.47886978 -12.17959219 -0.14591649 -8.15234375 -0.66015625 C-7.09841431 -0.79562866 -7.09841431 -0.79562866 -6.02319336 -0.93383789 C-4 -1 -4 -1 0 0 Z " fill="#2DAF9B" transform="translate(732,113)"/>
<path d="M0 0 C13.2 0 26.4 0 40 0 C40 2.97 40 5.94 40 9 C26.8 9 13.6 9 0 9 C0 6.03 0 3.06 0 0 Z " fill="#4ABC82" transform="translate(765,134)"/>
<path d="M0 0 C3.98467756 0.82292254 6.67947232 2.66053731 10 5 C8.9363042 14.83918617 7.73018369 23.060027 1.6875 31.0625 C-1.80097883 33.57744985 -3.78321086 33.53668225 -8 33 C-10.4375 32 -10.4375 32 -12 31 C-8.93109813 29.46554906 -6.29905734 30.45015711 -3 31 C-3.185625 30.278125 -3.37125 29.55625 -3.5625 28.8125 C-4.01995307 25.87173027 -3.73516357 23.85896942 -3 21 C-4.65 21 -6.3 21 -8 21 C-8 20.34 -8 19.68 -8 19 C-9.65 18.67 -11.3 18.34 -13 18 C-13.33 18.66 -13.66 19.32 -14 20 C-15 18 -15 18 -14.46875 16.19140625 C-13.85728665 13.33281509 -14.54134905 11.67709301 -15.5 8.9375 C-17.10874357 4.32623071 -17.10874357 4.32623071 -16 1 C-15.62488281 1.96421875 -15.24976563 2.9284375 -14.86328125 3.921875 C-14.34711109 5.19822304 -13.83014145 6.47424796 -13.3125 7.75 C-12.94608398 8.70132813 -12.94608398 8.70132813 -12.57226562 9.671875 C-10.79110002 14.00078381 -8.87072759 16.38874255 -5 19 C-4.34 18.67 -3.68 18.34 -3 18 C-1.1637973 12.05934422 -0.48154174 6.18400967 0 0 Z " fill="#2CB599" transform="translate(725,169)"/>
<path d="M0 0 C3.08204946 2.99297289 5.48401208 6.52460813 8 10 C8.62132812 10.83273438 9.24265625 11.66546875 9.8828125 12.5234375 C14.05087595 18.35872634 14.05087595 18.35872634 13.83203125 21.1171875 C12.44647755 24.25257193 9.9058022 25.37275077 7 27 C6.01 27 5.02 27 4 27 C3.6596875 26.32195312 3.319375 25.64390625 2.96875 24.9453125 C-0.25146999 18.76180498 -3.80113002 13.46612206 -8.36328125 8.19140625 C-9.96835372 6.04237128 -10.5882749 4.61952637 -11 2 C-6.85888898 -0.40762269 -4.60975526 -1.58150065 0 0 Z " fill="#2FB09C" transform="translate(716,83)"/>
<path d="M0 0 C9.57 0 19.14 0 29 0 C30.62651522 3.25303044 30.11453156 6.39225602 30 10 C29 11 29 11 26.22436523 11.11352539 C25.01466064 11.10828857 23.80495605 11.10305176 22.55859375 11.09765625 C21.25341797 11.09443359 19.94824219 11.09121094 18.60351562 11.08789062 C17.2148431 11.07953401 15.82617123 11.07106905 14.4375 11.0625 C13.04492344 11.05748666 11.65234519 11.05292347 10.25976562 11.04882812 C6.8398013 11.03699434 3.41992156 11.0205088 0 11 C0 10.01 0 9.02 0 8 C0.99 8 1.98 8 3 8 C2.7215625 6.824375 2.7215625 6.824375 2.4375 5.625 C2 3 2 3 3 1 C2.01 0.67 1.02 0.34 0 0 Z " fill="#1AA2A5" transform="translate(650,168)"/>
<path d="M0 0 C0.63394697 4.04141194 1.12404452 7.9065307 1 12 C5.455 11.505 5.455 11.505 10 11 C10.33 11.99 10.66 12.98 11 14 C10.01 14.495 10.01 14.495 9 15 C8.67 15.99 8.34 16.98 8 18 C9.98 18 11.96 18 14 18 C14 18.33 14 18.66 14 19 C10.48026001 19.50790159 6.95905958 20.00488523 3.4375 20.5 C2.44685547 20.64308594 1.45621094 20.78617188 0.43554688 20.93359375 C-4.76467588 21.65920623 -9.74952418 22.17673411 -15 22 C-15.33 19.03 -15.66 16.06 -16 13 C-12.7 12.67 -9.4 12.34 -6 12 C-6.33 11.01 -6.66 10.02 -7 9 C-7.03954234 6.66700175 -7.04401732 4.33291811 -7 2 C-4.35261084 0.5393715 -3.10551666 0 0 0 Z " fill="#47BA84" transform="translate(779,175)"/>
<path d="M0 0 C3.95008059 0.68379546 6.63457018 1.78843183 10 4 C9.3108233 8.83380877 7.46450863 13.01079472 5.5 17.4375 C5.15195312 18.22431152 4.80390625 19.01112305 4.4453125 19.82177734 C1.00446567 27.36998255 -3.27662946 34.19922112 -8 41 C-8.33 39.68 -8.66 38.36 -9 37 C-8.34 37 -7.68 37 -7 37 C-6.87625 35.88625 -6.7525 34.7725 -6.625 33.625 C-6 30 -6 30 -4 28 C-4.33 27.401875 -4.66 26.80375 -5 26.1875 C-6 24 -6 24 -6 21 C-6.66 21 -7.32 21 -8 21 C-6.48728707 16.28562282 -4.73227046 11.71041415 -2.875 7.125 C-2.59785156 6.43664062 -2.32070313 5.74828125 -2.03515625 5.0390625 C-1.35835767 3.35873499 -0.67940197 1.67927658 0 0 Z " fill="#2EAE9A" transform="translate(718,129)"/>
<path d="M0 0 C16.83 0 33.66 0 51 0 C51 0.33 51 0.66 51 1 C50.00782471 1.02505615 49.01564941 1.0501123 47.9934082 1.07592773 C44.249013 1.17137866 40.50474533 1.27124044 36.76049805 1.37231445 C35.15180481 1.4151509 33.54308087 1.45685199 31.93432617 1.49731445 C22.25828846 1.74155224 12.64349235 2.12779422 3 3 C1.93622007 7.317695 1.87044008 11.50724869 1.90234375 15.92578125 C1.90335083 16.58912476 1.90435791 17.25246826 1.90539551 17.93591309 C1.91059577 20.39479318 1.92455687 22.85364847 1.9375 25.3125 C1.958125 30.819375 1.97875 36.32625 2 42 C14.87 42 27.74 42 41 42 C41 62.79 41 83.58 41 105 C40.67 105 40.34 105 40 105 C40 84.87 40 64.74 40 44 C27.21006205 44.03960405 27.21006205 44.03960405 14.42016602 44.09008789 C12.8230801 44.09300703 11.22599345 44.09555559 9.62890625 44.09765625 C8.79194214 44.10277222 7.95497803 44.10788818 7.09265137 44.11315918 C5.06141735 44.11346924 3.03027529 44.06240188 1 44 C0 43 0 43 -0.12025452 41.24729919 C-0.11803391 40.48562943 -0.11581329 39.72395966 -0.11352539 38.93920898 C-0.11340454 38.06631226 -0.11328369 37.19341553 -0.11315918 36.29406738 C-0.10804321 35.37073608 -0.10292725 34.44740479 -0.09765625 33.49609375 C-0.09664917 32.6517981 -0.09564209 31.80750244 -0.09460449 30.93762207 C-0.0893557 27.77090098 -0.07539456 24.60419919 -0.0625 21.4375 C-0.041875 14.363125 -0.02125 7.28875 0 0 Z " fill="#6BBB76" transform="translate(808,85)"/>
<path d="M0 0 C4.01880768 7.55406899 7.67296379 14.44798884 9 23 C4.05 24.485 4.05 24.485 -1 26 C-1.30292969 25.26136719 -1.60585938 24.52273437 -1.91796875 23.76171875 C-4.80417569 16.77265763 -7.8253197 9.86271315 -11 3 C-7.06312043 0.80267187 -4.48703763 -0.18345639 0 0 Z " fill="#0A98AF" transform="translate(620,83)"/>
<path d="M0 0 C3.3266775 7.88067292 6.43584264 15.28314715 6 24 C2.1389146 25.43668294 -0.896427 26.11185208 -5 26 C-5.29003906 24.53240234 -5.29003906 24.53240234 -5.5859375 23.03515625 C-6.98056039 16.00464251 -8.40608783 8.98869181 -10 2 C-6.45648927 0.38010938 -3.87280581 -0.10414268 0 0 Z " fill="#1D9DAB" transform="translate(644,80)"/>
<path d="M0 0 C2.97 0 5.94 0 9 0 C8.67 0.66 8.34 1.32 8 2 C6.02 2 4.04 2 2 2 C2 5.3 2 8.6 2 12 C-2.0188515 13.81242323 -5.61110675 15.33501617 -10 16 C-10.33 16.99 -10.66 17.98 -11 19 C-9.98679687 19.07347656 -9.98679687 19.07347656 -8.953125 19.1484375 C-8.06109375 19.22320312 -7.1690625 19.29796875 -6.25 19.375 C-5.36828125 19.44460937 -4.4865625 19.51421875 -3.578125 19.5859375 C-0.99123446 20.0014078 0.70679196 20.78519648 3 22 C2.9065465 26.3786383 2.80047246 30.75673196 2.68261719 35.13476562 C2.64430002 36.62458889 2.60945192 38.11450554 2.578125 39.60449219 C2.53253271 41.74448048 2.47453126 43.88382436 2.4140625 46.0234375 C2.3826416 47.31169434 2.3512207 48.59995117 2.31884766 49.92724609 C2 53 2 53 0 55 C0 44.11 0 33.22 0 22 C-6.20792914 22.03958027 -6.20792914 22.03958027 -12.41577148 22.09008789 C-13.18477783 22.09258545 -13.95378418 22.09508301 -14.74609375 22.09765625 C-15.53685303 22.10289307 -16.3276123 22.10812988 -17.14233398 22.11352539 C-19 22 -19 22 -20 21 C-20 18.03 -20 15.06 -20 12 C-13.4 12 -6.8 12 0 12 C0 8.04 0 4.08 0 0 Z " fill="#61C079" transform="translate(825,132)"/>
<path d="M0 0 C4.34850871 6.66338649 6.73589182 13.07675457 7 21 C3.04 21.495 3.04 21.495 -1 22 C-1.391875 20.741875 -1.78375 19.48375 -2.1875 18.1875 C-4.03884094 12.59787448 -6.48545526 7.31731793 -9 2 C-3.375 -1.125 -3.375 -1.125 0 0 Z " fill="#56C56F" transform="translate(815,158)"/>
<path d="M0 0 C0.2025236 3.64542483 -0.15272892 5.84877287 -2 9 C-2.33 9.66 -2.66 10.32 -3 11 C-8.94 11 -14.88 11 -21 11 C-20.67 8.03 -20.34 5.06 -20 2 C-18.95199219 1.93941406 -17.90398437 1.87882813 -16.82421875 1.81640625 C-15.44529952 1.73198262 -14.06639395 1.64733553 -12.6875 1.5625 C-11.99720703 1.52318359 -11.30691406 1.48386719 -10.59570312 1.44335938 C-6.98021777 1.21629991 -3.52220097 0 0 0 Z " fill="#19A7A5" transform="translate(146,172)"/>
<path d="M0 0 C16.5 0 33 0 50 0 C50 14.52 50 29.04 50 44 C37.46 44 24.92 44 12 44 C12 43.67 12 43.34 12 43 C12.95366455 42.96036133 13.9073291 42.92072266 14.88989258 42.87988281 C18.43002476 42.72766524 21.96852327 42.55025695 25.50708008 42.36523438 C27.03832736 42.28869633 28.56993166 42.21898222 30.10180664 42.15625 C32.30484554 42.06484352 34.50543144 41.94890343 36.70703125 41.828125 C37.39150833 41.80502258 38.07598541 41.78192017 38.78120422 41.75811768 C42.0515415 41.55519205 43.59861299 41.4498275 45.83081055 38.94824219 C46.21664307 38.30532227 46.60247559 37.66240234 47 37 C47.66 37 48.32 37 49 37 C48.82597656 35.9790625 48.65195312 34.958125 48.47265625 33.90625 C47.66562639 27.45001112 48.1514347 20.98063844 48.4375 14.5 C48.7159375 7.8175 48.7159375 7.8175 49 1 C33.16 1 17.32 1 1 1 C0.67 1.66 0.34 2.32 0 3 C0 2.01 0 1.02 0 0 Z " fill="#60AE86" transform="translate(748,85)"/>
<path d="M0 0 C3.98467756 0.82292254 6.67947232 2.66053731 10 5 C9.34 9.29 8.68 13.58 8 18 C7.67 18 7.34 18 7 18 C7.33 15.36 7.66 12.72 8 10 C5.525 9.505 5.525 9.505 3 9 C0.75094049 11.90377931 0.75094049 11.90377931 0.5 15.5625 C0 19 0 19 -2 21 C-5.125 21.125 -5.125 21.125 -8 21 C-8 20.34 -8 19.68 -8 19 C-9.65 18.67 -11.3 18.34 -13 18 C-13.33 18.66 -13.66 19.32 -14 20 C-15 18 -15 18 -14.46875 16.19140625 C-13.85728665 13.33281509 -14.54134905 11.67709301 -15.5 8.9375 C-17.10874357 4.32623071 -17.10874357 4.32623071 -16 1 C-15.62488281 1.96421875 -15.24976563 2.9284375 -14.86328125 3.921875 C-14.34711109 5.19822304 -13.83014145 6.47424796 -13.3125 7.75 C-12.94608398 8.70132813 -12.94608398 8.70132813 -12.57226562 9.671875 C-10.79110002 14.00078381 -8.87072759 16.38874255 -5 19 C-4.34 18.67 -3.68 18.34 -3 18 C-1.1637973 12.05934422 -0.48154174 6.18400967 0 0 Z " fill="#3BAC98" transform="translate(725,169)"/>
<path d="M0 0 C0.99 0.33 1.98 0.66 3 1 C2.67 1.66 2.34 2.32 2 3 C2.28112064 5.00800456 2.61067967 7.01014051 3 9 C1.68 8.67 0.36 8.34 -1 8 C-1.33 9.65 -1.66 11.3 -2 13 C-3.98 13.33 -5.96 13.66 -8 14 C-8 13.34 -8 12.68 -8 12 C-10.31 11.34 -12.62 10.68 -15 10 C-13.69432208 6.08296623 -12.19905398 5.68242813 -8.625 3.75 C-7.64789062 3.20859375 -6.67078125 2.6671875 -5.6640625 2.109375 C-3 1 -3 1 0 2 C0 1.34 0 0.68 0 0 Z " fill="#1AA9A6" transform="translate(681,185)"/>
<path d="M0 0 C4.62 0 9.24 0 14 0 C13.67 2.64 13.34 5.28 13 8 C14.65 8.66 16.3 9.32 18 10 C14.31912647 12.45391569 11.55644412 12.22802759 7.3125 12.125 C6.61060547 12.11597656 5.90871094 12.10695312 5.18554688 12.09765625 C3.45688475 12.07413704 1.72839855 12.03826713 0 12 C-0.99 9.69 -1.98 7.38 -3 5 C-3.53625 5.33 -4.0725 5.66 -4.625 6 C-7.5391061 7.22699204 -9.86867708 7.14233286 -13 7 C-10 5 -10 5 -6 5 C-5.67 4.01 -5.34 3.02 -5 2 C-2.625 2.6875 -2.625 2.6875 0 4 C1.3125 6.625 1.3125 6.625 2 9 C4.31 9.33 6.62 9.66 9 10 C9.33 8.68 9.66 7.36 10 6 C9.01 6 8.02 6 7 6 C7 4.35 7 2.7 7 1 C5.02 1.33 3.04 1.66 1 2 C0.67 1.34 0.34 0.68 0 0 Z " fill="#6DC869" transform="translate(835,190)"/>
<path d="M0 0 C1.65 0.33 3.3 0.66 5 1 C6.95827192 5.79851364 7.11684311 9.79917914 6.625 14.875 C6.56828125 15.56335938 6.5115625 16.25171875 6.453125 16.9609375 C6.31307172 18.64157689 6.15807755 20.32096005 6 22 C4.02 22 2.04 22 0 22 C0 21.34 0 20.68 0 20 C-0.66 20 -1.32 20 -2 20 C-2 20.66 -2 21.32 -2 22 C-2.66 22 -3.32 22 -4 22 C-4 21.01 -4 20.02 -4 19 C-3.34 19 -2.68 19 -2 19 C-1.67 18.01 -1.34 17.02 -1 16 C-0.01 15.34 0.98 14.68 2 14 C1.67 13.67 1.34 13.34 1 13 C1.04125 12.21625 1.0825 11.4325 1.125 10.625 C1.27308978 7.95148819 1.27308978 7.95148819 -0.5 6.3125 C-0.995 5.879375 -1.49 5.44625 -2 5 C-2 4.34 -2 3.68 -2 3 C-1.34 3 -0.68 3 0 3 C0 2.01 0 1.02 0 0 Z " fill="#4CC278" transform="translate(795,149)"/>
<path d="M0 0 C1.98 0.66 3.96 1.32 6 2 C6 2.33 6 2.66 6 3 C4.35 3 2.7 3 1 3 C0.67 5.97 0.34 8.94 0 12 C5.94 12 11.88 12 18 12 C18.33 11.01 18.66 10.02 19 9 C22.465 8.505 22.465 8.505 26 8 C26.33 6.68 26.66 5.36 27 4 C27.99 4.66 28.98 5.32 30 6 C24.01231228 11.58850854 17.07010436 14.21966238 8.9375 14.4375 C0.79477836 14.13436916 -5.50100335 11.83258726 -12 7 C-11.01 7 -10.02 7 -9 7 C-6.43549931 6.56215842 -4.33103593 6.16551796 -2 5 C-1.27840576 3.35636866 -0.60648579 1.68949614 0 0 Z " fill="#34A29F" transform="translate(125,171)"/>
<path d="M0 0 C1.9756562 2.96348429 2.26376859 3.68020373 2.4140625 7.01171875 C2.45273437 7.76904297 2.49140625 8.52636719 2.53125 9.30664062 C2.57765625 10.48516602 2.57765625 10.48516602 2.625 11.6875 C2.66367187 12.48478516 2.70234375 13.28207031 2.7421875 14.10351562 C2.83632494 16.06863475 2.91924632 18.0342854 3 20 C7.88127654 21.3052109 12.44141724 22.28009663 17.5 22.625 C19.06234375 22.73714844 19.06234375 22.73714844 20.65625 22.8515625 C21.4296875 22.90054688 22.203125 22.94953125 23 23 C23 23.33 23 23.66 23 24 C19.04 24.33 15.08 24.66 11 25 C11 25.66 11 26.32 11 27 C8 29 8 29 5 29 C4.67 30.32 4.34 31.64 4 33 C3.34 30.69 2.68 28.38 2 26 C2.33 25.67 2.66 25.34 3 25 C2.01 24.67 1.02 24.34 0 24 C0 16.08 0 8.16 0 0 Z " fill="#52B48B" transform="translate(767,148)"/>
<path d="M0 0 C4.95 0 9.9 0 15 0 C14.67 1.32 14.34 2.64 14 4 C14.99 4.33 15.98 4.66 17 5 C17 5.66 17 6.32 17 7 C12.126739 8.5912689 8.19209404 9.21192221 3 9 C2.01 6.03 1.02 3.06 0 0 Z " fill="#5BC572" transform="translate(812,188)"/>
<path d="M0 0 C6.6 0 13.2 0 20 0 C20 0.66 20 1.32 20 2 C20.99 2.66 21.98 3.32 23 4 C19.16275828 4.90413673 15.62497726 5.10576898 11.6875 5.0625 C10.08455078 5.04896484 10.08455078 5.04896484 8.44921875 5.03515625 C7.64097656 5.02355469 6.83273437 5.01195313 6 5 C6 5.66 6 6.32 6 7 C4.33388095 7.042721 2.66617115 7.04063832 1 7 C0.67 6.67 0.34 6.34 0 6 C0 4.02 0 2.04 0 0 Z " fill="#5BC86A" transform="translate(816,87)"/>
<path d="M0 0 C2.91019311 2.46824401 3.93540196 4.93080098 5.1875 8.5 C5.53167969 9.4590625 5.87585938 10.418125 6.23046875 11.40625 C7 14 7 14 7 17 C2.05 18.485 2.05 18.485 -3 20 C-6 13.375 -6 13.375 -6 10 C-4.35 10 -2.7 10 -1 10 C-1 10.99 -1 11.98 -1 13 C-0.01 12.67 0.98 12.34 2 12 C2.26252625 7.66831683 1.29243536 4.1196377 0 0 Z " fill="#1D97AA" transform="translate(622,89)"/>
<path d="M0 0 C0 7.92 0 15.84 0 24 C-0.99 24.33 -1.98 24.66 -3 25 C-3.33 25.99 -3.66 26.98 -4 28 C-5.5 26.6875 -5.5 26.6875 -7 25 C-7 24.01 -7 23.02 -7 22 C-5.35 22.33 -3.7 22.66 -2 23 C-1.97296438 20.41659616 -1.95314389 17.83347692 -1.9375 15.25 C-1.92912109 14.52039063 -1.92074219 13.79078125 -1.91210938 13.0390625 C-1.88208995 7.93406768 -1.88208995 7.93406768 -3 3 C-5.62723396 1.68638302 -7.72610561 1.78746091 -10.6640625 1.68359375 C-11.78554688 1.64169922 -12.90703125 1.59980469 -14.0625 1.55664062 C-15.238125 1.51732422 -16.41375 1.47800781 -17.625 1.4375 C-19.40003906 1.37272461 -19.40003906 1.37272461 -21.2109375 1.30664062 C-24.14050328 1.20032574 -27.07015588 1.09829358 -30 1 C-30 0.67 -30 0.34 -30 0 C-25.56285102 -0.19652332 -21.12527385 -0.38067922 -16.6875 -0.5625 C-14.79354492 -0.64661133 -14.79354492 -0.64661133 -12.86132812 -0.73242188 C-11.65283203 -0.78076172 -10.44433594 -0.82910156 -9.19921875 -0.87890625 C-8.08377686 -0.9260376 -6.96833496 -0.97316895 -5.8190918 -1.02172852 C-3 -1 -3 -1 0 0 Z " fill="#5CBA82" transform="translate(803,148)"/>
<path d="M0 0 C1.16410032 3.49230095 1.06545104 6.33474201 1 10 C1 10.99 1 11.98 1 13 C0 14 0 14 -2.5625 14.0625 C-3.366875 14.041875 -4.17125 14.02125 -5 14 C-5.12375 13.195625 -5.2475 12.39125 -5.375 11.5625 C-5.684375 10.2940625 -5.684375 10.2940625 -6 9 C-6.66 8.67 -7.32 8.34 -8 8 C-7.34 5.69 -6.68 3.38 -6 1 C-4.02 0.67 -2.04 0.34 0 0 Z " fill="#0D9FB1" transform="translate(83,106)"/>
<path d="M0 0 C1.65 0 3.3 0 5 0 C5 0.66 5 1.32 5 2 C4.01 2.33 3.02 2.66 2 3 C1.67 3.99 1.34 4.98 1 6 C0.01 6.495 0.01 6.495 -1 7 C0.11923892 10.78393339 0.11923892 10.78393339 3.078125 13.1640625 C3.71234375 13.43992187 4.3465625 13.71578125 5 14 C4.54554036 15.41791408 4.08625056 16.83428046 3.625 18.25 C3.36976563 19.03890625 3.11453125 19.8278125 2.8515625 20.640625 C2.04826333 22.86627958 1.10288338 24.90931672 0 27 C-0.33 24.36 -0.66 21.72 -1 19 C-0.34 19 0.32 19 1 19 C0.67 18.01 0.34 17.02 0 16 C-0.99 16.66 -1.98 17.32 -3 18 C-3.99 17.67 -4.98 17.34 -6 17 C-4.49829538 11.01448228 -3.05773837 5.38744379 0 0 Z " fill="#E9BA3E" transform="translate(485,39)"/>
<path d="M0 0 C4.35763296 0.5028038 6.91905734 3.05301137 10 6 C11.88412896 9.11290871 12.00290727 10.83719308 11.9375 14.5 C10.79942975 18.74879561 9.53488673 20.40774973 6 23 C2.6875 23.3125 2.6875 23.3125 0 23 C0 20.69 0 18.38 0 16 C2 19 2 19 2 21 C3.98 20.34 5.96 19.68 8 19 C7.67 18.34 7.34 17.68 7 17 C6.8671875 15.125 6.8671875 15.125 6.875 13 C6.87242188 12.29875 6.86984375 11.5975 6.8671875 10.875 C7 9 7 9 8 7 C7.38125 6.9175 6.7625 6.835 6.125 6.75 C4 6 4 6 2.875 4.0625 C2.441875 3.0415625 2.441875 3.0415625 2 2 C1.34 1.34 0.68 0.68 0 0 Z " fill="#1D99A7" transform="translate(76,99)"/>
<path d="M0 0 C0.33 0 0.66 0 1 0 C0.67 3.63 0.34 7.26 0 11 C9.24 11 18.48 11 28 11 C28 9.02 28 7.04 28 5 C30 7 30 7 30 13 C19.77 13 9.54 13 -1 13 C-2.50095055 8.49714836 -1.20936982 4.49194504 0 0 Z " fill="#36A2A2" transform="translate(117,122)"/>
<path d="M0 0 C0.66 0 1.32 0 2 0 C2 14.19 2 28.38 2 43 C1.34 43 0.68 43 0 43 C-0.02505615 41.82904785 -0.0501123 40.6580957 -0.07592773 39.45166016 C-0.16993703 35.11674622 -0.27017341 30.78199496 -0.37231445 26.44726562 C-0.41568789 24.56937458 -0.45736118 22.69144348 -0.49731445 20.81347656 C-0.55495876 18.1177156 -0.61866981 15.42215673 -0.68359375 12.7265625 C-0.70030624 11.88380768 -0.71701874 11.04105286 -0.73423767 10.17276001 C-0.73236144 5.9513339 -0.73236144 5.9513339 -2 2 C-1.34 1.34 -0.68 0.68 0 0 Z " fill="#4EAF8F" transform="translate(757,129)"/>
<path d="M0 0 C2.66557258 6.05022986 4.51030705 11.38914524 5 18 C2.03947516 14.63576723 1.07710178 11.30840713 0 7 C-4.61507774 5.95785309 -4.61507774 5.95785309 -9 7 C-9.33 5.35 -9.66 3.7 -10 2 C-6.45648927 0.38010938 -3.87280581 -0.10414268 0 0 Z " fill="#239CA7" transform="translate(644,80)"/>
<path d="M0 0 C1.23556641 0.01740234 1.23556641 0.01740234 2.49609375 0.03515625 C3.32238281 0.04417969 4.14867187 0.05320313 5 0.0625 C5.63808594 0.07410156 6.27617188 0.08570313 6.93359375 0.09765625 C6.93359375 0.42765625 6.93359375 0.75765625 6.93359375 1.09765625 C4.29359375 1.09765625 1.65359375 1.09765625 -1.06640625 1.09765625 C-1.06640625 3.73765625 -1.06640625 6.37765625 -1.06640625 9.09765625 C7.84359375 9.09765625 16.75359375 9.09765625 25.93359375 9.09765625 C25.93359375 9.75765625 25.93359375 10.41765625 25.93359375 11.09765625 C16.36359375 11.09765625 6.79359375 11.09765625 -3.06640625 11.09765625 C-3.06640625 0.14491523 -3.06640625 0.14491523 0 0 Z " fill="#2E95A6" transform="translate(612.06640625,167.90234375)"/>
<path d="M0 0 C2.14642449 3.21963674 3.35881354 6.44429859 4.625 10.0625 C4.85445313 10.69994141 5.08390625 11.33738281 5.3203125 11.99414062 C7 16.738258 7 16.738258 7 19 C4.69 19.33 2.38 19.66 0 20 C0 22.64 0 25.28 0 28 C-2.12046792 24.46588679 -2.53199289 21.05606165 -3 17 C-2.01 17 -1.02 17 0 17 C1.20054169 13.48174588 0.7757271 10.97243441 0 7.375 C-1.10694184 2.21388368 -1.10694184 2.21388368 0 0 Z " fill="#EBBD40" transform="translate(491,42)"/>
<path d="M0 0 C0.33 0 0.66 0 1 0 C1.02465881 3.96930989 1.04284023 7.93859034 1.05493164 11.90795898 C1.05997057 13.25920386 1.06680177 14.61044326 1.07543945 15.96166992 C1.08752419 17.90020434 1.09269828 19.838778 1.09765625 21.77734375 C1.10551147 23.52905884 1.10551147 23.52905884 1.11352539 25.31616211 C1 28 1 28 0 29 C-1.85369611 29.08737645 -3.71067541 29.10698153 -5.56640625 29.09765625 C-6.69111328 29.09443359 -7.81582031 29.09121094 -8.97460938 29.08789062 C-10.15861328 29.07951172 -11.34261719 29.07113281 -12.5625 29.0625 C-13.75037109 29.05798828 -14.93824219 29.05347656 -16.16210938 29.04882812 C-19.10812226 29.03699675 -22.05403681 29.02051287 -25 29 C-24.67 28.34 -24.34 27.68 -24 27 C-16.08 26.67 -8.16 26.34 0 26 C-0.12568359 23.31037109 -0.12568359 23.31037109 -0.25390625 20.56640625 C-0.35704223 18.23178281 -0.45989209 15.89714671 -0.5625 13.5625 C-0.61857422 12.37849609 -0.67464844 11.19449219 -0.73242188 9.97460938 C-0.78076172 8.84990234 -0.82910156 7.72519531 -0.87890625 6.56640625 C-0.9260376 5.52427979 -0.97316895 4.48215332 -1.02172852 3.40844727 C-1 1 -1 1 0 0 Z " fill="#319CA0" transform="translate(675,130)"/>
<path d="M0 0 C9.37723319 2.16397689 21.63454176 5.98810279 28.13671875 13.453125 C29.74737388 16.31446077 31 18.6852229 31 22 C30.34 22 29.68 22 29 22 C29 21.34 29 20.68 29 20 C28.34 20 27.68 20 27 20 C27 19.34 27 18.68 27 18 C26.01 17.67 25.02 17.34 24 17 C24 15.02 24 13.04 24 11 C22.824375 10.62875 21.64875 10.2575 20.4375 9.875 C13.50251395 7.57445174 6.76419476 4.75380261 0 2 C0 1.34 0 0.68 0 0 Z " fill="#E5BF55" transform="translate(442,145)"/>
<path d="M0 0 C1.33333333 5.33333333 2.66666667 10.66666667 4 16 C3.34 16 2.68 16 2 16 C-1.00559652 10.99067246 -1.29341888 7.67276511 -1 2 C-4.62328055 2.3299974 -4.62328055 2.3299974 -7.3125 4.5625 C-8.84667835 10.0018596 -8.09192712 15.54036442 -7 21 C-10.38112083 17.91288967 -10.95036038 15.76941411 -11.25 11.125 C-11.20103123 7.31942721 -10.41208795 5.03744409 -8 2 C-4.77208445 -0.1519437 -3.71599191 -0.20086443 0 0 Z " fill="#2993A7" transform="translate(50,157)"/>
<path d="M0 0 C2.97 0 5.94 0 9 0 C8.67 0.66 8.34 1.32 8 2 C6.02 2 4.04 2 2 2 C2.01160156 2.71027344 2.02320313 3.42054688 2.03515625 4.15234375 C2.04417969 5.07144531 2.05320312 5.99054688 2.0625 6.9375 C2.07410156 7.85402344 2.08570313 8.77054688 2.09765625 9.71484375 C2 12 2 12 1 13 C-0.41570123 13.08651611 -1.835595 13.10704904 -3.25390625 13.09765625 C-4.10791016 13.09443359 -4.96191406 13.09121094 -5.84179688 13.08789062 C-6.73962891 13.07951172 -7.63746094 13.07113281 -8.5625 13.0625 C-9.46419922 13.05798828 -10.36589844 13.05347656 -11.29492188 13.04882812 C-13.53001314 13.03700225 -15.76497437 13.0205222 -18 13 C-18 15.31 -18 17.62 -18 20 C-17.34 20.33 -16.68 20.66 -16 21 C-17.32 21 -18.64 21 -20 21 C-20 18.03 -20 15.06 -20 12 C-13.4 12 -6.8 12 0 12 C0 8.04 0 4.08 0 0 Z " fill="#69BA7C" transform="translate(825,132)"/>
<path d="M0 0 C0.66 0 1.32 0 2 0 C1.67 2.64 1.34 5.28 1 8 C13.21 7.67 25.42 7.34 38 7 C38.33 5.35 38.66 3.7 39 2 C39.33 2 39.66 2 40 2 C40 4.31 40 6.62 40 9 C26.8 9 13.6 9 0 9 C0 6.03 0 3.06 0 0 Z " fill="#5FAE87" transform="translate(765,134)"/>
<path d="M0 0 C1 3 1 3 0.36328125 4.9375 C-3.42000564 12.36343115 -3.42000564 12.36343115 -7 14 C-11.25812212 14.38018947 -14.35187527 14.33479983 -18 12 C-14.93109813 10.46554906 -12.29905734 11.45015711 -9 12 C-9.33 10.35 -9.66 8.7 -10 7 C-6.71303767 6.20046862 -5.28976808 5.90341064 -2 7 C-2.33 5.02 -2.66 3.04 -3 1 C-2.01 0.67 -1.02 0.34 0 0 Z " fill="#39AD95" transform="translate(731,188)"/>
<path d="M0 0 C0.94875 0.04125 1.8975 0.0825 2.875 0.125 C4.73276765 3.25998292 5.07640476 5.49971432 4.875 9.125 C2.895 10.115 2.895 10.115 0.875 11.125 C0.215 10.135 -0.445 9.145 -1.125 8.125 C-2.115 7.795 -3.105 7.465 -4.125 7.125 C-4.75 4.75 -4.75 4.75 -5.125 2.125 C-3.125 0.125 -3.125 0.125 0 0 Z " fill="#079AB1" transform="translate(620.125,91.875)"/>
<path d="M0 0 C0.91072266 -0.01224609 1.82144531 -0.02449219 2.75976562 -0.03710938 C3.63439453 -0.03904297 4.50902344 -0.04097656 5.41015625 -0.04296875 C6.60523804 -0.04913208 6.60523804 -0.04913208 7.82446289 -0.05541992 C9.9375 0.1875 9.9375 0.1875 12.9375 2.1875 C13.23046875 4.3515625 13.23046875 4.3515625 13.125 6.8125 C13.09792969 7.62976563 13.07085938 8.44703125 13.04296875 9.2890625 C13.00816406 9.91554688 12.97335937 10.54203125 12.9375 11.1875 C12.6075 11.1875 12.2775 11.1875 11.9375 11.1875 C11.9375 8.5475 11.9375 5.9075 11.9375 3.1875 C3.3575 3.1875 -5.2225 3.1875 -14.0625 3.1875 C-14.0625 2.5275 -14.0625 1.8675 -14.0625 1.1875 C-9.38928776 -0.15123275 -4.82772054 0.00343122 0 0 Z " fill="#6FC579" transform="translate(836.0625,90.8125)"/>
<path d="M0 0 C3.50983276 2.79486682 5.77745073 5.10326872 6.9609375 9.57421875 C5.9090625 8.49140625 5.9090625 8.49140625 4.8359375 7.38671875 C-1.21194583 1.38994429 -6.01795468 -2.48207606 -14.78125 -2.62109375 C-16.4922974 -2.60793185 -18.20329232 -2.58427524 -19.9140625 -2.55078125 C-20.79320312 -2.54175781 -21.67234375 -2.53273438 -22.578125 -2.5234375 C-24.7318896 -2.50002702 -26.88551264 -2.46416135 -29.0390625 -2.42578125 C-21.59832321 -9.86652054 -7.44767364 -5.20766452 0 0 Z " fill="#359F9A" transform="translate(149.0390625,102.42578125)"/>
<path d="M0 0 C0.99 0 1.98 0 3 0 C3 0.66 3 1.32 3 2 C1.35 2.33 -0.3 2.66 -2 3 C-2 6.63 -2 10.26 -2 14 C-7.28 14 -12.56 14 -18 14 C-18 13.67 -18 13.34 -18 13 C-13.05 13 -8.1 13 -3 13 C-3 9.7 -3 6.4 -3 3 C-7.95 3 -12.9 3 -18 3 C-17.67 2.34 -17.34 1.68 -17 1 C-15.85660156 1.01160156 -14.71320312 1.02320313 -13.53515625 1.03515625 C-12.04427246 1.04453288 -10.55338691 1.05363321 -9.0625 1.0625 C-8.30775391 1.07087891 -7.55300781 1.07925781 -6.77539062 1.08789062 C-4.85005687 1.09652441 -2.92464419 1.05224333 -1 1 C-0.67 0.67 -0.34 0.34 0 0 Z " fill="#349CA3" transform="translate(668,136)"/>
<path d="M0 0 C3.0625 0.1875 3.0625 0.1875 5.0625 2.1875 C5.1875 5.8125 5.1875 5.8125 5.0625 9.1875 C3.4125 9.5175 1.7625 9.8475 0.0625 10.1875 C-2.42469271 7.26775204 -3.52322305 5.01956182 -3.9375 1.1875 C-2.9375 0.1875 -2.9375 0.1875 0 0 Z M0.0625 1.1875 C1.0625 3.1875 1.0625 3.1875 1.0625 3.1875 Z " fill="#0E9FAD" transform="translate(640.9375,85.8125)"/>
<path d="M0 0 C2.43729293 3.6559394 2.26838474 5.52700788 2.25 9.875 C2.25515625 11.08929688 2.2603125 12.30359375 2.265625 13.5546875 C2.01353508 16.82444211 1.40602799 19.06519555 0 22 C-0.33 22 -0.66 22 -1 22 C-2.32594359 16.03325384 -2.0884587 10.07416385 -2 4 C-1.34 4 -0.68 4 0 4 C0 2.68 0 1.36 0 0 Z " fill="#1D99AB" transform="translate(88,150)"/>
<path d="M0 0 C6.04945657 1.89045518 11.28007327 5.70676436 15.0625 10.75 C15.5265625 11.86375 15.5265625 11.86375 16 13 C15.67 13.66 15.34 14.32 15 15 C11.81227007 12.87484671 10.75079247 11.33484279 9 8 C9 7.34 9 6.68 9 6 C7.68 5.67 6.36 5.34 5 5 C4.896875 5.61875 4.79375 6.2375 4.6875 6.875 C4 9 4 9 1 11 C0.01 11 -0.98 11 -2 11 C-1.67 10.01 -1.34 9.02 -1 8 C-0.34 8 0.32 8 1 8 C1 7.34 1 6.68 1 6 C1.33 5.67 1.66 5.34 2 5 C2 4.01 2 3.02 2 2 C1.34 2 0.68 2 0 2 C0 1.34 0 0.68 0 0 Z " fill="#1A9BAB" transform="translate(72,135)"/>
<path d="M0 0 C4.36568695 0.87313739 6.42547265 1.65102489 10 4 C9.25 8.75 9.25 8.75 7 11 C5.68 9.02 4.36 7.04 3 5 C2.01 5.33 1.02 5.66 0 6 C0 6.99 0 7.98 0 9 C-0.99 9.33 -1.98 9.66 -3 10 C-2.01 6.7 -1.02 3.4 0 0 Z " fill="#3CA994" transform="translate(718,129)"/>
<path d="M0 0 C0.33 0 0.66 0 1 0 C1.04898438 1.11375 1.09796875 2.2275 1.1484375 3.375 C1.63947004 13.66513688 2.56850958 23.79889353 4 34 C1.35541621 35.32229189 -0.67761301 35.09677194 -3.625 35.0625 C-4.62789062 35.05347656 -5.63078125 35.04445312 -6.6640625 35.03515625 C-7.43492187 35.02355469 -8.20578125 35.01195312 -9 35 C-9 34.67 -9 34.34 -9 34 C-4.05 33.505 -4.05 33.505 1 33 C0.835 31.453125 0.67 29.90625 0.5 28.3125 C-0.30462268 18.89501488 -0.08626058 9.44354263 0 0 Z " fill="#3CA39F" transform="translate(688,84)"/>
<path d="M0 0 C0.99 0.33 1.98 0.66 3 1 C3 1.99 3 2.98 3 4 C3.66 4 4.32 4 5 4 C5.33 4.66 5.66 5.32 6 6 C6.99 4.68 7.98 3.36 9 2 C9.66 2.33 10.32 2.66 11 3 C11.66 2.34 12.32 1.68 13 1 C13.33 3.97 13.66 6.94 14 10 C13.34 8.68 12.68 7.36 12 6 C10.35 6.66 8.7 7.32 7 8 C7.66 9.98 8.32 11.96 9 14 C8.34 14.66 7.68 15.32 7 16 C4.69 10.72 2.38 5.44 0 0 Z " fill="#EABD42" transform="translate(472,201)"/>
<path d="M0 0 C9.57 0.33 19.14 0.66 29 1 C29 1.66 29 2.32 29 3 C19.43 3 9.86 3 0 3 C0 2.01 0 1.02 0 0 Z " fill="#349DA1" transform="translate(650,176)"/>
<path d="M0 0 C8.58 0 17.16 0 26 0 C26.33 0.66 26.66 1.32 27 2 C22.87536584 2.19622046 18.75028427 2.38050216 14.625 2.5625 C13.449375 2.61857422 12.27375 2.67464844 11.0625 2.73242188 C9.94101562 2.78076172 8.81953125 2.82910156 7.6640625 2.87890625 C6.62717285 2.9260376 5.5902832 2.97316895 4.52197266 3.02172852 C2 3 2 3 0 2 C0 1.34 0 0.68 0 0 Z " fill="#6DBA76" transform="translate(821,119)"/>
<path d="M0 0 C1.98 0.66 3.96 1.32 6 2 C6 2.33 6 2.66 6 3 C4.35 3 2.7 3 1 3 C0.67 5.64 0.34 8.28 0 11 C-5.29441695 11.50423019 -7.81413519 10.18923033 -12 7 C-11.01 7 -10.02 7 -9 7 C-6.43549931 6.56215842 -4.33103593 6.16551796 -2 5 C-1.27840576 3.35636866 -0.60648579 1.68949614 0 0 Z " fill="#299FA4" transform="translate(125,171)"/>
<path d="M0 0 C0.66 0 1.32 0 2 0 C2.33872513 1.41538717 2.67074624 2.83237963 3 4.25 C3.185625 5.03890625 3.37125 5.8278125 3.5625 6.640625 C4 9 4 9 4 13 C4.66 13.33 5.32 13.66 6 14 C4.125 14.625 4.125 14.625 2 15 C1.34 14.34 0.68 13.68 0 13 C0 12.67 0 12.34 0 12 C-4.95 11.67 -9.9 11.34 -15 11 C-15 10.67 -15 10.34 -15 10 C-10.05 10 -5.1 10 0 10 C0 6.7 0 3.4 0 0 Z " fill="#269EA1" transform="translate(665,120)"/>
<path d="M0 0 C2.475 0.495 2.475 0.495 5 1 C0.9693752 5.42068526 -3.61537138 9.31776927 -9 12 C-12.73639216 10.75453595 -13.18756513 9.36595047 -15 6 C-13.68 6.33 -12.36 6.66 -11 7 C-11 7.66 -11 8.32 -11 9 C-7.99615946 8.3045656 -7.99615946 8.3045656 -5 7 C-4.03122943 4.96756452 -4.03122943 4.96756452 -4 3 C-2.68 3.33 -1.36 3.66 0 4 C0 2.68 0 1.36 0 0 Z " fill="#319F9D" transform="translate(684,190)"/>
<path d="M0 0 C2.875 0.6875 2.875 0.6875 6 2 C6.2475 2.825 6.495 3.65 6.75 4.5 C7.36875 5.7375 7.36875 5.7375 8 7 C11.27750918 8.07971456 14.58154942 8.57742401 18 9 C18 9.33 18 9.66 18 10 C14.04 10 10.08 10 6 10 C5.01 7.69 4.02 5.38 3 3 C2.46375 3.33 1.9275 3.66 1.375 4 C-1.5391061 5.22699204 -3.86867708 5.14233286 -7 5 C-4 3 -4 3 0 3 C0 2.01 0 1.02 0 0 Z " fill="#6BC375" transform="translate(829,192)"/>
<path d="M0 0 C0 0.66 0 1.32 0 2 C-1.98 2.33 -3.96 2.66 -6 3 C-6 3.66 -6 4.32 -6 5 C-9.26545761 6.88391785 -12.28111761 7.49287967 -16 8 C-16.33 9.32 -16.66 10.64 -17 12 C-15.68 12 -14.36 12 -13 12 C-13 12.66 -13 13.32 -13 14 C-14.65 13.67 -16.3 13.34 -18 13 C-18 10.69 -18 8.38 -18 6 C-16.10188337 5.28820626 -14.20363599 4.576759 -12.3046875 3.8671875 C-10.7864632 3.29592344 -9.27074292 2.71795284 -7.7578125 2.1328125 C-2.2125 0 -2.2125 0 0 0 Z " fill="#E7C045" transform="translate(409,127)"/>
<path d="M0 0 C1.46373047 0.48919922 1.46373047 0.48919922 2.95703125 0.98828125 C7.23244616 2.2075224 11.26812416 2.26122093 15.6875 2.1875 C16.43322266 2.18685547 17.17894531 2.18621094 17.94726562 2.18554688 C21.46135471 2.15733385 24.6199875 1.94084757 28 1 C28.33 1.66 28.66 2.32 29 3 C20.28187106 6.28073518 11.33632012 6.0047288 2.609375 2.8515625 C1 2 1 2 0 0 Z " fill="#6CBB80" transform="translate(322,180)"/>
<path d="M0 0 C1.37562854 1.28965176 2.70766393 2.62689293 4 4 C4 4.66 4 5.32 4 6 C4.66 6.33 5.32 6.66 6 7 C5.01 8.485 5.01 8.485 4 10 C5.65 9.67 7.3 9.34 9 9 C9.33 7.68 9.66 6.36 10 5 C10 6.98 10 8.96 10 11 C7.36 11.33 4.72 11.66 2 12 C1.46809459 10.56656 0.94984742 9.12804633 0.4375 7.6875 C0.14746094 6.88699219 -0.14257812 6.08648437 -0.44140625 5.26171875 C-1 3 -1 3 0 0 Z " fill="#60BC7E" transform="translate(812,168)"/>
<path d="M0 0 C0.33 0 0.66 0 1 0 C1.04241723 2.33294775 1.04092937 4.66702567 1 7 C0 8 0 8 -3.81640625 8.09765625 C-5.39846682 8.09098089 -6.98051159 8.07901875 -8.5625 8.0625 C-9.36880859 8.05798828 -10.17511719 8.05347656 -11.00585938 8.04882812 C-13.00393756 8.03700518 -15.00197783 8.01906914 -17 8 C-17 11.96 -17 15.92 -17 20 C-17.66 19.67 -18.32 19.34 -19 19 C-19.44921875 16.78515625 -19.44921875 16.78515625 -19.6875 14.0625 C-19.81705078 12.71865234 -19.81705078 12.71865234 -19.94921875 11.34765625 C-20 9 -20 9 -19 7 C-13.06 7 -7.12 7 -1 7 C-0.67 4.69 -0.34 2.38 0 0 Z " fill="#5AB68A" transform="translate(296,100)"/>
<path d="M0 0 C-0.66 3.96 -1.32 7.92 -2 12 C-2.598125 11.21625 -3.19625 10.4325 -3.8125 9.625 C-5.91085249 6.85425677 -5.91085249 6.85425677 -9 5 C-11.74518321 4.75812349 -11.74518321 4.75812349 -14.6875 4.875 C-15.68136719 4.89304687 -16.67523438 4.91109375 -17.69921875 4.9296875 C-18.45847656 4.95289062 -19.21773437 4.97609375 -20 5 C-18 3 -18 3 -15.72265625 2.76953125 C-14.84480469 2.78371094 -13.96695313 2.79789062 -13.0625 2.8125 C-12.18722656 2.81894531 -11.31195313 2.82539062 -10.41015625 2.83203125 C-8 3 -8 3 -5 4 C-4.67 3.01 -4.34 2.02 -4 1 C-2 0 -2 0 0 0 Z " fill="#229CAB" transform="translate(78,102)"/>
<path d="M0 0 C0.66 0.33 1.32 0.66 2 1 C1.01 2.485 1.01 2.485 0 4 C0.66 4.33 1.32 4.66 2 5 C0.3603125 5.61875 0.3603125 5.61875 -1.3125 6.25 C-4.52706838 7.63973259 -6.31648245 8.8200224 -8 12 C-8.71433121 14.64934822 -8.71433121 14.64934822 -9 17 C-9.99 16.34 -10.98 15.68 -12 15 C-12.99 15 -13.98 15 -15 15 C-10.05 10.05 -5.1 5.1 0 0 Z " fill="#E3BD50" transform="translate(457,91)"/>
<path d="M0 0 C0.99 0 1.98 0 3 0 C3 0.66 3 1.32 3 2 C4.32 1.67 5.64 1.34 7 1 C7 1.66 7 2.32 7 3 C9.64 2.67 12.28 2.34 15 2 C15 2.99 15 3.98 15 5 C4.44191344 6.33257403 4.44191344 6.33257403 0 5 C0 3.35 0 1.7 0 0 Z " fill="#41BD8C" transform="translate(765,191)"/>
<path d="M0 0 C0.33 0 0.66 0 1 0 C1.54308093 2.63782164 1.42115577 4.33317003 -0.03125 6.6328125 C-4.59994659 11.45791554 -9.70412647 11.72212404 -16.01977539 11.95019531 C-17.67954652 11.9860282 -19.33984762 11.99572676 -21 12 C-21.33 10.35 -21.66 8.7 -22 7 C-20.7625 7.495 -20.7625 7.495 -19.5 8 C-13.90521681 9.59850948 -9.9061371 9.95306855 -4.625 7.3125 C-1.92543855 4.93431491 -0.95127182 3.42457856 0 0 Z " fill="#2B9BA5" transform="translate(76,166)"/>
<path d="M0 0 C0.33 0 0.66 0 1 0 C1.04898437 1.31613281 1.09796875 2.63226563 1.1484375 3.98828125 C1.62940011 16.52942004 1.62940011 16.52942004 3.59765625 28.90625 C4 31 4 31 4 35 C3.34 35 2.68 35 2 35 C-2.66965608 25.66068783 -0.09300738 10.18216182 0 0 Z " fill="#5FBA80" transform="translate(321,131)"/>
<path d="M0 0 C0.33 0 0.66 0 1 0 C1 1.65 1 3.3 1 5 C1.66 5.33 2.32 5.66 3 6 C2.88581333 8.58422459 2.75907638 11.16679513 2.625 13.75 C2.5940625 14.47960937 2.563125 15.20921875 2.53125 15.9609375 C2.31050269 20.00797144 1.85079003 22.29841994 0 26 C0 17.42 0 8.84 0 0 Z " fill="#66C272" transform="translate(354,126)"/>
<path d="M0 0 C2.64 0 5.28 0 8 0 C8 6.6 8 13.2 8 20 C8.99 20.33 9.98 20.66 11 21 C9.68 21 8.36 21 7 21 C6.67 14.73 6.34 8.46 6 2 C3.69 2.66 1.38 3.32 -1 4 C-0.67 2.68 -0.34 1.36 0 0 Z " fill="#54B48D" transform="translate(271,79)"/>
<path d="M0 0 C0.66 0 1.32 0 2 0 C2.33 0.99 2.66 1.98 3 3 C3.66 3.66 4.32 4.32 5 5 C5.4140625 7.6015625 5.4140625 7.6015625 5.625 10.625 C5.69976562 11.62789062 5.77453125 12.63078125 5.8515625 13.6640625 C5.92503906 14.82035156 5.92503906 14.82035156 6 16 C7.65 16.33 9.3 16.66 11 17 C11 17.33 11 17.66 11 18 C9.02 18 7.04 18 5 18 C2.58137942 12.06338584 1.0992895 6.31121503 0 0 Z " fill="#E6BE53" transform="translate(480,217)"/>
<path d="M0 0 C3.875 1.875 3.875 1.875 5 3 C5.04080783 4.99958364 5.04254356 7.00045254 5 9 C3.35 8.01 1.7 7.02 0 6 C-1.65 7.32 -3.3 8.64 -5 10 C-5.66 9.67 -6.32 9.34 -7 9 C-6.57847656 8.51789063 -6.15695313 8.03578125 -5.72265625 7.5390625 C-5.17480469 6.90742188 -4.62695312 6.27578125 -4.0625 5.625 C-3.51722656 4.99851563 -2.97195312 4.37203125 -2.41015625 3.7265625 C-0.93041376 2.04367666 -0.93041376 2.04367666 0 0 Z " fill="#34A6A0" transform="translate(153,162)"/>
<path d="M0 0 C0.66 0.99 1.32 1.98 2 3 C1.34 3.66 0.68 4.32 0 5 C-0.46482941 7.52629973 -0.46482941 7.52629973 -0.625 10.375 C-0.69976562 11.33148438 -0.77453125 12.28796875 -0.8515625 13.2734375 C-0.97347919 15.51285468 -1 17.75726663 -1 20 C-0.34 20 0.32 20 1 20 C0.67 21.65 0.34 23.3 0 25 C-3.37872681 21.62127319 -3.18618403 18.32347754 -3.25 13.75 C-3.22580059 8.33538264 -2.62704279 4.706785 0 0 Z " fill="#2B92A3" transform="translate(44,107)"/>
<path d="M0 0 C0.33 0 0.66 0 1 0 C1.33 3.3 1.66 6.6 2 10 C-5.41143564 11.42625566 -12.44862068 12.30071865 -20 12 C-19.67 11.34 -19.34 10.68 -19 10 C-16.51476492 9.71232959 -14.11856552 9.53251504 -11.625 9.4375 C-6.23664857 9.22883692 -6.23664857 9.22883692 -1 8 C-0.67 5.36 -0.34 2.72 0 0 Z " fill="#44A493" transform="translate(731,113)"/>
<path d="M0 0 C0.33 0 0.66 0 1 0 C1.17015625 0.7734375 1.3403125 1.546875 1.515625 2.34375 C3.00978603 8.76546336 4.7878103 14.24021157 8 20 C6 20 6 20 4.375 18.5 C3.92125 18.005 3.4675 17.51 3 17 C3 17.66 3 18.32 3 19 C2.34 19 1.68 19 1 19 C1.01160156 18.36191406 1.02320312 17.72382813 1.03515625 17.06640625 C1.04417969 16.24011719 1.05320312 15.41382813 1.0625 14.5625 C1.07990234 13.32693359 1.07990234 13.32693359 1.09765625 12.06640625 C1.23267348 10.00836062 1.23267348 10.00836062 0 9 C-0.07179964 7.48071962 -0.08392007 5.95832518 -0.0625 4.4375 C-0.05347656 3.61121094 -0.04445313 2.78492188 -0.03515625 1.93359375 C-0.02355469 1.29550781 -0.01195313 0.65742188 0 0 Z " fill="#2D9FA0" transform="translate(117,151)"/>
<path d="M0 0 C0 0.66 0 1.32 0 2 C0.66 2 1.32 2 2 2 C2.33 2.99 2.66 3.98 3 5 C0.3333581 6.33332095 -1.16680303 5.67102033 -4 5 C-4 4.34 -4 3.68 -4 3 C-5.32 2.67 -6.64 2.34 -8 2 C-8 1.34 -8 0.68 -8 0 C-4.71023192 -1.09658936 -3.28696233 -0.79953138 0 0 Z " fill="#EFB829" transform="translate(406,138)"/>
<path d="M0 0 C0.99 0.33 1.98 0.66 3 1 C2.979375 1.78375 2.95875 2.5675 2.9375 3.375 C2.81315937 5.98114961 2.81315937 5.98114961 4 8 C-1.08372698 10.10084617 -5.03377407 10.10793182 -10.375 9.625 C-11.11105469 9.56828125 -11.84710937 9.5115625 -12.60546875 9.453125 C-14.40452468 9.31293882 -16.20241939 9.15798214 -18 9 C-18 8.67 -18 8.34 -18 8 C-12.06 8 -6.12 8 0 8 C0 5.36 0 2.72 0 0 Z " fill="#58BA83" transform="translate(794,156)"/>
<path d="M0 0 C2.64 0.66 5.28 1.32 8 2 C8 4.31 8 6.62 8 9 C3.05 9 -1.9 9 -7 9 C-7 8.67 -7 8.34 -7 8 C-2.71 8 1.58 8 6 8 C6 7.34 6 6.68 6 6 C4.68 5.67 3.36 5.34 2 5 C2 4.01 2 3.02 2 2 C1.34 2 0.68 2 0 2 C0 1.34 0 0.68 0 0 Z " fill="#32AC94" transform="translate(198,173)"/>
<path d="M0 0 C0.33 0 0.66 0 1 0 C1.28875 1.11375 1.5775 2.2275 1.875 3.375 C2.69241329 7.00291092 2.69241329 7.00291092 5 9 C8.17647059 15.47058824 8.17647059 15.47058824 7 19 C2.76518645 13.36689896 -0.47118123 8.17911541 -1 1 C-0.67 0.67 -0.34 0.34 0 0 Z " fill="#2E9CA3" transform="translate(104,157)"/>
<path d="M0 0 C0.33 0 0.66 0 1 0 C1.25 2.25 1.25 2.25 1 5 C-0.33333333 6.33333333 -1.66666667 7.66666667 -3 9 C-4.5019209 13.26861731 -5.34566109 17.5286841 -6 22 C-6.66 22 -7.32 22 -8 22 C-7.74792024 14.43760709 -5.55860267 5.55860267 0 0 Z " fill="#5FB883" transform="translate(315,106)"/>
<path d="M0 0 C0.99 0.66 1.98 1.32 3 2 C0.1043586 5.32462531 -1.69268237 6.30151606 -6 7 C-6.33 7.66 -6.66 8.32 -7 9 C-7.99 8.67 -8.98 8.34 -10 8 C-8.76736651 4.30209954 -7.79947549 4.0645154 -4.4375 2.3125 C-3.61121094 1.87550781 -2.78492188 1.43851563 -1.93359375 0.98828125 C-1.29550781 0.66214844 -0.65742187 0.33601562 0 0 Z " fill="#2CA09F" transform="translate(676,187)"/>
<path d="M0 0 C0.66 0 1.32 0 2 0 C5 5.75 5 5.75 5 8 C5.66 8 6.32 8 7 8 C7.33 8.99 7.66 9.98 8 11 C9.34188115 13.97130826 10.98712437 16.43815829 13 19 C7.22641974 16.6307122 4.39707148 11.15249959 1.94921875 5.62890625 C1.25020749 3.77039763 0.61760415 1.88712378 0 0 Z " fill="#3FA79E" transform="translate(700,180)"/>
<path d="M0 0 C0 2.64 0 5.28 0 8 C-2.35438733 9.42944945 -3.48032433 10.08661261 -6.25 9.625 C-6.8275 9.41875 -7.405 9.2125 -8 9 C-6.68 8.67 -5.36 8.34 -4 8 C-3.67 6.02 -3.34 4.04 -3 2 C-5.97 1.505 -5.97 1.505 -9 1 C-9 0.67 -9 0.34 -9 0 C-2.25 -1.125 -2.25 -1.125 0 0 Z " fill="#5BB487" transform="translate(298,174)"/>
<path d="M0 0 C0.33 0.66 0.66 1.32 1 2 C2.32 1.67 3.64 1.34 5 1 C4.67 3.31 4.34 5.62 4 8 C5.65 7.67 7.3 7.34 9 7 C8.67 8.65 8.34 10.3 8 12 C3.78456242 10.49448658 2.13950875 7.82055134 0 4 C0 2.68 0 1.36 0 0 Z " fill="#4BB78A" transform="translate(265,170)"/>
<path d="M0 0 C1.75 2.4375 1.75 2.4375 3 5 C2.67 5.66 2.34 6.32 2 7 C0.5 5.6875 0.5 5.6875 -1 4 C-1 3.01 -1 2.02 -1 1 C-2.98 1.99 -2.98 1.99 -5 3 C-4.67 5.64 -4.34 8.28 -4 11 C-6.32472205 8.14693203 -7.7508258 5.45925163 -9 2 C-3.375 -1.125 -3.375 -1.125 0 0 Z " fill="#65BA80" transform="translate(815,158)"/>
<path d="M0 0 C-1 2 -1 2 -4.0625 3.125 C-5.5165625 3.558125 -5.5165625 3.558125 -7 4 C-6.77183594 4.61488281 -6.54367187 5.22976562 -6.30859375 5.86328125 C-6.02113281 6.67152344 -5.73367188 7.47976562 -5.4375 8.3125 C-5.14746094 9.11300781 -4.85742188 9.91351563 -4.55859375 10.73828125 C-4 13 -4 13 -5 16 C-6.98 11.71 -8.96 7.42 -11 3 C-4.25 -0.375 -4.25 -0.375 0 0 Z " fill="#2B94A4" transform="translate(620,83)"/>
<path d="M0 0 C5.11365014 1.0681847 10.07227969 2.23107476 15 4 C14.67 5.65 14.34 7.3 14 9 C13.34 9 12.68 9 12 9 C12 8.01 12 7.02 12 6 C11.01 6.495 11.01 6.495 10 7 C10 6.34 10 5.68 10 5 C8.63875 4.5978125 8.63875 4.5978125 7.25 4.1875 C4.28528037 3.10423706 2.3830246 2.01640543 0 0 Z " fill="#ECBF45" transform="translate(567,127)"/>
<path d="M0 0 C1.32 0.66 2.64 1.32 4 2 C4 3.32 4 4.64 4 6 C4.33 6.99 4.66 7.98 5 9 C4.01 10.485 4.01 10.485 3 12 C0.9375 9.9375 0.9375 9.9375 -1 7 C-0.75 3.1875 -0.75 3.1875 0 0 Z " fill="#1EAFA6" transform="translate(689,176)"/>
<path d="M0 0 C1.65 0 3.3 0 5 0 C5.08226668 3.04386724 4.97608217 5.07175348 4 8 C2.68 8 1.36 8 0 8 C0 5.36 0 2.72 0 0 Z " fill="#0697B3" transform="translate(611,169)"/>
<path d="M0 0 C-0.99 0.33 -1.98 0.66 -3 1 C-3 1.66 -3 2.32 -3 3 C-7.95 3 -12.9 3 -18 3 C-14.73119651 1.36559825 -12.48745638 0.51956052 -9 -0.1875 C-8.154375 -0.36667969 -7.30875 -0.54585937 -6.4375 -0.73046875 C-3.96978589 -1.00334098 -2.34150494 -0.76424119 0 0 Z " fill="#E8BC45" transform="translate(568,138)"/>
<path d="M0 0 C0.66 0 1.32 0 2 0 C2 0.66 2 1.32 2 2 C2.66 2 3.32 2 4 2 C4 2.66 4 3.32 4 4 C6.97 4.33 9.94 4.66 13 5 C13 5.99 13 6.98 13 8 C13.99 8.33 14.98 8.66 16 9 C15.01 9.495 15.01 9.495 14 10 C11.25 8.92578125 11.25 8.92578125 8 7.3125 C6.9275 6.79300781 5.855 6.27351563 4.75 5.73828125 C1.96842563 3.98004177 1.06292523 3.04926676 0 0 Z " fill="#E6BF4B" transform="translate(505,113)"/>
<path d="M0 0 C0.99 0 1.98 0 3 0 C3.33 0.99 3.66 1.98 4 3 C1.36 5.64 -1.28 8.28 -4 11 C-4.33 9.68 -4.66 8.36 -5 7 C-4.34 7 -3.68 7 -3 7 C-3 6.34 -3 5.68 -3 5 C-2.01 5 -1.02 5 0 5 C-0.33 4.01 -0.66 3.02 -1 2 C-0.67 1.34 -0.34 0.68 0 0 Z " fill="#E9BA40" transform="translate(521,173)"/>
<path d="M0 0 C2.31 0.33 4.62 0.66 7 1 C7 1.99 7 2.98 7 4 C7.99 4 8.98 4 10 4 C9.67 5.32 9.34 6.64 9 8 C7.49460339 7.05016642 5.99579653 6.08988109 4.5 5.125 C3.6646875 4.59132812 2.829375 4.05765625 1.96875 3.5078125 C1.3190625 3.01023438 0.669375 2.51265625 0 2 C0 1.34 0 0.68 0 0 Z " fill="#209AAB" transform="translate(64,146)"/>
<path d="M0 0 C0.66 0 1.32 0 2 0 C2 1.98 2 3.96 2 6 C-3.61 6 -9.22 6 -15 6 C-15 5.67 -15 5.34 -15 5 C-14.16855469 4.97421875 -13.33710937 4.9484375 -12.48046875 4.921875 C-10.85044922 4.83679688 -10.85044922 4.83679688 -9.1875 4.75 C-7.56908203 4.68039063 -7.56908203 4.68039063 -5.91796875 4.609375 C-2.88349656 4.28454108 -2.88349656 4.28454108 -1.23828125 1.953125 C-0.82964844 1.30859375 -0.42101562 0.6640625 0 0 Z " fill="#4DBB7C" transform="translate(795,122)"/>
<path d="M0 0 C3 1 3 1 4.0625 3 C4.371875 3.66 4.68125 4.32 5 5 C5.66 5.33 6.32 5.66 7 6 C6.67 6.99 6.34 7.98 6 9 C4.6589523 8.24266726 3.32730219 7.46867264 2 6.6875 C0.88625 6.04361328 0.88625 6.04361328 -0.25 5.38671875 C-1.11625 4.70029297 -1.11625 4.70029297 -2 4 C-2 3.01 -2 2.02 -2 1 C-1.34 0.67 -0.68 0.34 0 0 Z " fill="#E8BB40" transform="translate(429,152)"/>
<path d="M0 0 C1.60379341 -0.05416188 3.20811406 -0.09286638 4.8125 -0.125 C5.70582031 -0.14820312 6.59914063 -0.17140625 7.51953125 -0.1953125 C10 0 10 0 13 2 C13.29296875 4.1640625 13.29296875 4.1640625 13.1875 6.625 C13.16042969 7.44226563 13.13335938 8.25953125 13.10546875 9.1015625 C13.07066406 9.72804688 13.03585937 10.35453125 13 11 C12.67 11 12.34 11 12 11 C12 8.36 12 5.72 12 3 C10.948125 3.04125 9.89625 3.0825 8.8125 3.125 C5.25989827 3.00852125 3.15133359 2.52791932 0 1 C0 0.67 0 0.34 0 0 Z " fill="#70C86C" transform="translate(836,91)"/>
<path d="M0 0 C0.33 0 0.66 0 1 0 C1.33 3.63 1.66 7.26 2 11 C1.01 11 0.02 11 -1 11 C-1 12.32 -1 13.64 -1 15 C-1.66 15 -2.32 15 -3 15 C-2.35812082 9.86496656 -1.31727753 5.0056546 0 0 Z " fill="#E7B84A" transform="translate(494,187)"/>
<path d="M0 0 C0.2475 0.639375 0.495 1.27875 0.75 1.9375 C1.79878028 4.15861061 1.79878028 4.15861061 3.9375 4.6875 C4.618125 4.790625 5.29875 4.89375 6 5 C6.99 5.33 7.98 5.66 9 6 C9 7.98 9 9.96 9 12 C8.34 11.01 7.68 10.02 7 9 C7.33 8.34 7.66 7.68 8 7 C6.02 7 4.04 7 2 7 C2 6.34 2 5.68 2 5 C0.35 4.67 -1.3 4.34 -3 4 C-2.01 3.67 -1.02 3.34 0 3 C0 2.01 0 1.02 0 0 Z " fill="#42B28E" transform="translate(239,170)"/>
<path d="M0 0 C0.33 0 0.66 0 1 0 C1 4.29 1 8.58 1 13 C0.01 13.33 -0.98 13.66 -2 14 C-2.33 14.99 -2.66 15.98 -3 17 C-4.5 15.6875 -4.5 15.6875 -6 14 C-6 13.01 -6 12.02 -6 11 C-4.35 11 -2.7 11 -1 11 C-0.67 7.37 -0.34 3.74 0 0 Z " fill="#65B683" transform="translate(802,159)"/>
<path d="M0 0 C0 0.33 0 0.66 0 1 C-4.455 1.495 -4.455 1.495 -9 2 C-9 4.31 -9 6.62 -9 9 C-9.99 8.67 -10.98 8.34 -12 8 C-12.33 5.69 -12.66 3.38 -13 1 C-8.59085217 -0.10228696 -4.51617599 -0.07654536 0 0 Z " fill="#34A69B" transform="translate(711,125)"/>
<path d="M0 0 C0.66 0.33 1.32 0.66 2 1 C1.54625 1.721875 1.0925 2.44375 0.625 3.1875 C-0.85494358 5.74894081 -1.97217539 8.23277989 -3 11 C-3.66 11 -4.32 11 -5 11 C-5 11.99 -5 12.98 -5 14 C-5.66 14 -6.32 14 -7 14 C-5.53967505 8.68972746 -3.01679014 4.53669968 0 0 Z " fill="#E3BC55" transform="translate(508,155)"/>
<path d="M0 0 C0.33 0 0.66 0 1 0 C1.19466332 1.79090253 1.38051213 3.58276505 1.5625 5.375 C1.66691406 6.37273437 1.77132813 7.37046875 1.87890625 8.3984375 C2 11 2 11 1 13 C0.01 12.34 -0.98 11.68 -2 11 C-1.85957123 9.35369672 -1.71250671 7.70795821 -1.5625 6.0625 C-1.48128906 5.14597656 -1.40007812 4.22945312 -1.31640625 3.28515625 C-1 1 -1 1 0 0 Z " fill="#E9BA39" transform="translate(486,211)"/>
<path d="M0 0 C3.21365891 1.10815825 3.9914224 1.98529554 5.75 5 C7 8 7 8 7 10 C6.34 10 5.68 10 5 10 C5 9.34 5 8.68 5 8 C4.34 8 3.68 8 3 8 C3 7.34 3 6.68 3 6 C2.01 5.67 1.02 5.34 0 5 C0 3.35 0 1.7 0 0 Z " fill="#E6BD42" transform="translate(466,157)"/>
<path d="M0 0 C3.3 0 6.6 0 10 0 C10 2.97 10 5.94 10 9 C9.34 8.67 8.68 8.34 8 8 C8 6.02 8 4.04 8 2 C5.36 1.67 2.72 1.34 0 1 C0 0.67 0 0.34 0 0 Z " fill="#77C47B" transform="translate(834,144)"/>
<path d="M0 0 C5.28 0 10.56 0 16 0 C16 0.33 16 0.66 16 1 C9.565 1.495 9.565 1.495 3 2 C2.67 3.65 2.34 5.3 2 7 C1.34 7.99 0.68 8.98 0 10 C0 6.7 0 3.4 0 0 Z " fill="#5EBD79" transform="translate(808,86)"/>
<path d="M0 0 C3.96 0.99 3.96 0.99 8 2 C7.38125 2.28875 6.7625 2.5775 6.125 2.875 C3.86674235 3.93720042 3.86674235 3.93720042 2 6 C-0.125 5.625 -0.125 5.625 -2 5 C-1.34 3.35 -0.68 1.7 0 0 Z " fill="#2E9E9D" transform="translate(669,80)"/>
<path d="M0 0 C2.625 -0.1875 2.625 -0.1875 5 0 C5 0.66 5 1.32 5 2 C4.01 2.33 3.02 2.66 2 3 C1.67 3.99 1.34 4.98 1 6 C0.01 6.495 0.01 6.495 -1 7 C-1.66 7.99 -2.32 8.98 -3 10 C-2.25 3.375 -2.25 3.375 0 0 Z " fill="#E8BD52" transform="translate(485,39)"/>
<path d="M0 0 C1.65 0 3.3 0 5 0 C5 1.98 5 3.96 5 6 C3.35 6 1.7 6 0 6 C-1.125 2.25 -1.125 2.25 0 0 Z " fill="#54C273" transform="translate(802,185)"/>
<path d="M0 0 C0.66 0.33 1.32 0.66 2 1 C2 3.64 2 6.28 2 9 C-0.31 8.67 -2.62 8.34 -5 8 C-4.34 7.01 -3.68 6.02 -3 5 C-2.01 5 -1.02 5 0 5 C0 3.35 0 1.7 0 0 Z " fill="#199998" transform="translate(678,169)"/>
<path d="M0 0 C1.65 0.33 3.3 0.66 5 1 C5 2.98 5 4.96 5 7 C2.09399739 8.25664978 0.20395416 9 -3 9 C-3 8.34 -3 7.68 -3 7 C-1.35 7 0.3 7 2 7 C2.77242269 5.16299211 2.77242269 5.16299211 3 3 C1.64555699 1.22809091 1.64555699 1.22809091 0 0 Z " fill="#E4B64C" transform="translate(583,132)"/>
<path d="M0 0 C2.33524782 2.25740623 4.18705073 4.2805761 6 7 C5.8125 9.125 5.8125 9.125 5 11 C4.01 11.33 3.02 11.66 2 12 C2.33 9.69 2.66 7.38 3 5 C2.34 5 1.68 5 1 5 C0.67 3.35 0.34 1.7 0 0 Z " fill="#3DA894" transform="translate(724,95)"/>
<path d="M0 0 C0.33 0.66 0.66 1.32 1 2 C0.10333658 4.24310013 -0.89146683 6.44754321 -1.9375 8.625 C-2.50339844 9.81351563 -3.06929688 11.00203125 -3.65234375 12.2265625 C-4.09707031 13.14179687 -4.54179687 14.05703125 -5 15 C-6.09658936 11.71023192 -5.79953138 10.28696233 -5 7 C-4.34 7 -3.68 7 -3 7 C-2.87625 6.401875 -2.7525 5.80375 -2.625 5.1875 C-2 3 -2 3 0 0 Z " fill="#E8BC4D" transform="translate(476,97)"/>
<path d="M0 0 C0.556875 0.33 1.11375 0.66 1.6875 1 C4.30284522 2.1309601 6.1806646 2.15662974 9 2 C8.34 3.32 7.68 4.64 7 6 C3.5625 5.1875 3.5625 5.1875 0 4 C-0.33 3.01 -0.66 2.02 -1 1 C-0.67 0.67 -0.34 0.34 0 0 Z " fill="#08A0BE" transform="translate(45,105)"/>
<path d="M0 0 C2.9156164 3.54039134 5.50127818 7.1626772 8 11 C7.01 11 6.02 11 5 11 C5 10.34 5 9.68 5 9 C4.34 9 3.68 9 3 9 C0.8125 6.75 0.8125 6.75 -1 4 C-0.75 1.6875 -0.75 1.6875 0 0 Z " fill="#E6BC4A" transform="translate(505,74)"/>
<path d="M0 0 C1.32 0 2.64 0 4 0 C4 0.99 4 1.98 4 3 C4.99 3.33 5.98 3.66 7 4 C4 6 4 6 1 6 C0.67 4.02 0.34 2.04 0 0 Z " fill="#40AA95" transform="translate(719,104)"/>
<path d="M0 0 C0.66 0 1.32 0 2 0 C2.33 1.65 2.66 3.3 3 5 C2.01 5.33 1.02 5.66 0 6 C-1.20882096 8.00016466 -1.20882096 8.00016466 -2 10 C-2.66 10 -3.32 10 -4 10 C-2.8905928 6.51329166 -1.73662334 3.22515763 0 0 Z " fill="#E7BB47" transform="translate(477,59)"/>
<path d="M0 0 C0 1.65 0 3.3 0 5 C-0.66 4.67 -1.32 4.34 -2 4 C-4.204364 3.77049681 -6.41392173 3.58924067 -8.625 3.4375 C-9.81351563 3.35371094 -11.00203125 3.26992187 -12.2265625 3.18359375 C-13.59941406 3.09271484 -13.59941406 3.09271484 -15 3 C-15 2.67 -15 2.34 -15 2 C-12.87528825 1.6648342 -10.75022095 1.33192171 -8.625 1 C-7.44164062 0.814375 -6.25828125 0.62875 -5.0390625 0.4375 C-2 0 -2 0 0 0 Z " fill="#33A4A2" transform="translate(146,172)"/>
<path d="M0 0 C0.86625 0.4640625 0.86625 0.4640625 1.75 0.9375 C3.84294184 1.92583364 5.74535275 2.5168613 8 3 C8.33 4.98 8.66 6.96 9 9 C7.87105124 8.06725891 6.74699124 7.12859878 5.625 6.1875 C4.99851562 5.66542969 4.37203125 5.14335937 3.7265625 4.60546875 C2 3 2 3 0 0 Z " fill="#E4BD47" transform="translate(444,167)"/>
<path d="M0 0 C2 3 2 3 2 5 C4.64 4.34 7.28 3.68 10 3 C8.375 5 8.375 5 6 7 C2.75 7.25 2.75 7.25 0 7 C0 4.69 0 2.38 0 0 Z " fill="#329CA4" transform="translate(76,115)"/>
<path d="M0 0 C0.66 0.33 1.32 0.66 2 1 C0.35 3.64 -1.3 6.28 -3 9 C-5 6 -5 6 -4.625 3.8125 C-4.41875 3.214375 -4.2125 2.61625 -4 2 C-3.67 2.66 -3.34 3.32 -3 4 C-2.34 4 -1.68 4 -1 4 C-0.67 2.68 -0.34 1.36 0 0 Z " fill="#ECC047" transform="translate(507,194)"/>
<path d="M0 0 C4.455 0.99 4.455 0.99 9 2 C7.25 3.5625 7.25 3.5625 5 5 C2.875 4.6875 2.875 4.6875 1 4 C0.34 4 -0.32 4 -1 4 C-0.67 2.68 -0.34 1.36 0 0 Z " fill="#45C093" transform="translate(769,147)"/>
<path d="M0 0 C1.98 0 3.96 0 6 0 C5.3125 1.9375 5.3125 1.9375 4 4 C1.375 4.75 1.375 4.75 -1 5 C-0.67 3.35 -0.34 1.7 0 0 Z " fill="#EEB92A" transform="translate(393,134)"/>
<path d="M0 0 C-0.66 3.96 -1.32 7.92 -2 12 C-2.33 12 -2.66 12 -3 12 C-3 8.7 -3 5.4 -3 2 C-4.65 2 -6.3 2 -8 2 C-8 1.67 -8 1.34 -8 1 C-2.25 0 -2.25 0 0 0 Z " fill="#2F99A4" transform="translate(642,118)"/>
<path d="M0 0 C3.80666984 1.44390925 5.26602582 3.34952803 7 7 C6.67 7.66 6.34 8.32 6 9 C2.81227007 6.87484671 1.75079247 5.33484279 0 2 C0 1.34 0 0.68 0 0 Z " fill="#23939E" transform="translate(81,141)"/>
<path d="M0 0 C1.77226453 0.28284018 3.542788 0.57660498 5.3125 0.875 C6.29863281 1.03742188 7.28476562 1.19984375 8.30078125 1.3671875 C11 2 11 2 14 4 C8.32723489 4.29341888 5.00932754 4.00559652 0 1 C0 0.67 0 0.34 0 0 Z " fill="#E4BC54" transform="translate(426,141)"/>
<path d="M0 0 C0.99 0.33 1.98 0.66 3 1 C3 1.99 3 2.98 3 4 C0.69 4.66 -1.62 5.32 -4 6 C-4 5.34 -4 4.68 -4 4 C-3.34 4 -2.68 4 -2 4 C-1.34 2.68 -0.68 1.36 0 0 Z " fill="#15A4AF" transform="translate(663,99)"/>
<path d="M0 0 C0.66 0.33 1.32 0.66 2 1 C1.39301257 5.12751449 -0.03810791 8.3321148 -2 12 C-3.15957207 8.52128379 -2.77456651 7.65780355 -1.5625 4.3125 C-1.13130859 3.10013672 -1.13130859 3.10013672 -0.69140625 1.86328125 C-0.46324219 1.24839844 -0.23507812 0.63351563 0 0 Z " fill="#E5C053" transform="translate(498,175)"/>
<path d="M0 0 C4.70491803 2.40983607 4.70491803 2.40983607 6 5 C3.69 4.67 1.38 4.34 -1 4 C-1.33 3.01 -1.66 2.02 -2 1 C-1.34 0.67 -0.68 0.34 0 0 Z " fill="#ECB940" transform="translate(534,107)"/>
<path d="M0 0 C0.33 1.32 0.66 2.64 1 4 C-2.875 7 -2.875 7 -4 7 C-4 5.02 -4 3.04 -4 1 C-2.68 0.67 -1.36 0.34 0 0 Z " fill="#2DAAA4" transform="translate(148,120)"/>
<path d="M0 0 C0.99 0.66 1.98 1.32 3 2 C1.68 4.64 0.36 7.28 -1 10 C-1.33 10 -1.66 10 -2 10 C-2.25 3.375 -2.25 3.375 0 0 Z " fill="#36AA92" transform="translate(199,111)"/>
<path d="M0 0 C0.99 0 1.98 0 3 0 C4.0625 1.8125 4.0625 1.8125 5 4 C4.67 4.99 4.34 5.98 4 7 C4 6.34 4 5.68 4 5 C3.01 5 2.02 5 1 5 C0.34 3.68 -0.32 2.36 -1 1 C-0.67 0.67 -0.34 0.34 0 0 Z " fill="#36AA95" transform="translate(714,96)"/>
<path d="M0 0 C0.33 0 0.66 0 1 0 C1.36923077 5.41538462 1.36923077 5.41538462 -0.5 8.375 C-0.995 8.91125 -1.49 9.4475 -2 10 C-2.66 9.67 -3.32 9.34 -4 9 C-3.34 8.34 -2.68 7.68 -2 7 C-2 6.01 -2 5.02 -2 4 C-1 1.8125 -1 1.8125 0 0 Z " fill="#EBB725" transform="translate(494,213)"/>
<path d="M0 0 C1.98 0.66 3.96 1.32 6 2 C5.67 2.99 5.34 3.98 5 5 C3 5 1 5 -1 5 C-0.67 3.35 -0.34 1.7 0 0 Z " fill="#EEC537" transform="translate(555,121)"/>
<path d="M0 0 C2.76223278 2.76223278 2.57856291 5.20706617 3 9 C0 7 0 7 -0.75 3.9375 C-0.8325 2.968125 -0.915 1.99875 -1 1 C-0.67 0.67 -0.34 0.34 0 0 Z " fill="#37A299" transform="translate(156,112)"/>
<path d="M0 0 C0.99 0 1.98 0 3 0 C4 3 4 3 4 6 C3.01 6.33 2.02 6.66 1 7 C0.31292445 4.50935112 0 2.62113708 0 0 Z " fill="#25B79E" transform="translate(199,105)"/>
<path d="M0 0 C0.99 0.33 1.98 0.66 3 1 C2.67 2.65 2.34 4.3 2 6 C1.01 5.34 0.02 4.68 -1 4 C-1.99 4 -2.98 4 -4 4 C-2.68 2.68 -1.36 1.36 0 0 Z " fill="#E7BC42" transform="translate(446,102)"/>
<path d="M0 0 C0 3.69418201 -1.28179295 5.77836178 -3 9 C-3.66 8.67 -4.32 8.34 -5 8 C-3.8141763 4.62496331 -2.72426311 2.35277269 0 0 Z " fill="#36A49C" transform="translate(695,170)"/>
<path d="M0 0 C0.99 0.33 1.98 0.66 3 1 C2.67 3.31 2.34 5.62 2 8 C1.71125 7.38125 1.4225 6.7625 1.125 6.125 C0.06279958 3.86674235 0.06279958 3.86674235 -2 2 C-1.34 2 -0.68 2 0 2 C0 1.34 0 0.68 0 0 Z " fill="#54C991" transform="translate(800,147)"/>
<path d="M0 0 C0.33 0 0.66 0 1 0 C1 2.97 1 5.94 1 9 C0.01 8.67 -0.98 8.34 -2 8 C-1.125 1.125 -1.125 1.125 0 0 Z " fill="#2B9FA3" transform="translate(116,142)"/>
<path d="M0 0 C1.65 0 3.3 0 5 0 C5 0.99 5 1.98 5 3 C6.32 3.33 7.64 3.66 9 4 C8.01 4.33 7.02 4.66 6 5 C2.8125 3.125 2.8125 3.125 0 1 C0 0.67 0 0.34 0 0 Z " fill="#2595A9" transform="translate(52,140)"/>
<path d="M0 0 C3.3 0 6.6 0 10 0 C10 0.33 10 0.66 10 1 C6.37 1.66 2.74 2.32 -1 3 C-0.67 2.01 -0.34 1.02 0 0 Z " fill="#ECB745" transform="translate(409,133)"/>
<path d="M0 0 C0.99 0.33 1.98 0.66 3 1 C1.68 3.64 0.36 6.28 -1 9 C-1.66 7.68 -2.32 6.36 -3 5 C-2.01 5 -1.02 5 0 5 C0 3.35 0 1.7 0 0 Z " fill="#2D9E9C" transform="translate(668,100)"/>
<path d="M0 0 C0.2475 0.61875 0.495 1.2375 0.75 1.875 C2.20628639 4.35068687 3.37812506 4.95125002 6 6 C3.6568787 5.74438677 1.32156597 5.40729228 -1 5 C-1.33 4.34 -1.66 3.68 -2 3 C-1.34 2.01 -0.68 1.02 0 0 Z " fill="#359CA6" transform="translate(658,103)"/>
<path d="M0 0 C0.33 0 0.66 0 1 0 C1.33 3.63 1.66 7.26 2 11 C1.01 10.67 0.02 10.34 -1 10 C-0.67 6.7 -0.34 3.4 0 0 Z " fill="#3EA695" transform="translate(193,99)"/>
<path d="M0 0 C0.99 0.33 1.98 0.66 3 1 C3 1.66 3 2.32 3 3 C3.99 3.33 4.98 3.66 6 4 C5.34 5.32 4.68 6.64 4 8 C0 2.25 0 2.25 0 0 Z " fill="#EABA4F" transform="translate(466,191)"/>
<path d="M0 0 C0.33 0.99 0.66 1.98 1 3 C-1.40339772 5.76390737 -2.16263678 6.04065919 -6 7 C-4.02 4.69 -2.04 2.38 0 0 Z " fill="#30A1A0" transform="translate(688,177)"/>
<path d="M0 0 C1.98 0.66 3.96 1.32 6 2 C6 2.66 6 3.32 6 4 C4.35 4.33 2.7 4.66 1 5 C0.67 3.35 0.34 1.7 0 0 Z " fill="#1B96A3" transform="translate(54,173)"/>
<path d="M0 0 C0.99 0.33 1.98 0.66 3 1 C-0.465 3.97 -0.465 3.97 -4 7 C-4 5.68 -4 4.36 -4 3 C-3.01 2.67 -2.02 2.34 -1 2 C-0.67 1.34 -0.34 0.68 0 0 Z " fill="#E2B947" transform="translate(533,164)"/>
<path d="M0 0 C2.125 0.9375 2.125 0.9375 4 2 C3.67 2.99 3.34 3.98 3 5 C-0.875 3.25 -0.875 3.25 -2 1 C-1.34 0.67 -0.68 0.34 0 0 Z " fill="#EEB840" transform="translate(441,162)"/>
<path d="M0 0 C1.32 0 2.64 0 4 0 C4 1.98 4 3.96 4 6 C3.67 5.34 3.34 4.68 3 4 C2.01 3.67 1.02 3.34 0 3 C0 2.01 0 1.02 0 0 Z " fill="#35A69B" transform="translate(699,136)"/>
<path d="M0 0 C1.32 0.99 2.64 1.98 4 3 C3.01 3.495 3.01 3.495 2 4 C2 4.66 2 5.32 2 6 C1.01 6.33 0.02 6.66 -1 7 C-1.33 5.68 -1.66 4.36 -2 3 C-1.34 3 -0.68 3 0 3 C0 2.01 0 1.02 0 0 Z " fill="#0F9AA5" transform="translate(60,128)"/>
<path d="M0 0 C0.33 0.66 0.66 1.32 1 2 C0.34 2 -0.32 2 -1 2 C-1.66 3.32 -2.32 4.64 -3 6 C-3.99 6 -4.98 6 -6 6 C-4.75453595 2.26360784 -3.36595047 1.81243487 0 0 Z " fill="#E9BB4A" transform="translate(433,113)"/>
<path d="M0 0 C0.66 0.99 1.32 1.98 2 3 C1.34 3.66 0.68 4.32 0 5 C-0.39764263 6.98821313 -0.73775349 8.98944339 -1 11 C-1.33 11 -1.66 11 -2 11 C-2.25 3.375 -2.25 3.375 0 0 Z " fill="#239BAF" transform="translate(44,107)"/>
<path d="M0 0 C1.65 0 3.3 0 5 0 C4.34 1.32 3.68 2.64 3 4 C1.68 4 0.36 4 -1 4 C-0.67 2.68 -0.34 1.36 0 0 Z " fill="#57C56B" transform="translate(325,106)"/>
<path d="M0 0 C0.66 0 1.32 0 2 0 C1.8125 1.8125 1.8125 1.8125 1 4 C-1.5625 5.75 -1.5625 5.75 -4 7 C-2.79618552 4.50638429 -1.54571278 2.31856917 0 0 Z " fill="#E6BC46" transform="translate(466,79)"/>
<path d="M0 0 C2.15377564 2.62198774 3.40072174 4.64404172 4 8 C1.525 7.01 1.525 7.01 -1 6 C-0.34 5.67 0.32 5.34 1 5 C0.67 3.35 0.34 1.7 0 0 Z " fill="#E5BB4C" transform="translate(498,61)"/>
</svg>
